<?xml version="1.0" encoding="UTF-8"?>
<svg width="20px" height="16px" viewBox="0 0 20 16" version="1.1" xmlns="http://www.w3.org/2000/svg" xmlns:xlink="http://www.w3.org/1999/xlink">
    <!-- Generator: Sketch 41.2 (35397) - http://www.bohemiancoding.com/sketch -->
    <title>envelope</title>
    <desc>Created with Sketch.</desc>
    <defs></defs>
    <g id="Page-1" stroke="none" stroke-width="1" fill="none" fill-rule="evenodd">
        <path d="M18.5714286,13.9285714 L18.5714286,5.35714286 C18.3371429,5.625 18.08,5.87071429 17.8014286,6.09357143 C16.2057143,7.32142857 14.5985714,8.57142857 13.0471429,9.86571429 C12.21,10.5685714 11.1721429,11.4285714 10.0114286,11.4285714 L9.98928571,11.4285714 C8.82857143,11.4285714 7.79071429,10.5692857 6.95357143,9.86571429 C5.40214286,8.57071429 3.795,7.32071429 2.19928571,6.09357143 C1.92,5.87 1.66357143,5.625 1.42928571,5.35714286 L1.42928571,13.9285714 C1.42928571,14.1185714 1.59642857,14.2857143 1.78642857,14.2857143 L18.215,14.2857143 C18.405,14.2857143 18.5721429,14.1185714 18.5721429,13.9285714 L18.5714286,13.9285714 Z M18.5714286,2.19857143 C18.5714286,1.91928571 18.6385714,1.42857143 18.2142857,1.42857143 L1.78571429,1.42857143 C1.59571429,1.42857143 1.42857143,1.59571429 1.42857143,1.78571429 C1.42857143,3.05785714 2.065,4.16285714 3.06928571,4.95571429 C4.565,6.12785714 6.06071429,7.31071429 7.545,8.49357143 C8.13642857,8.97357143 9.20785714,10 9.98928571,10 L10.0114286,10 C10.7928571,10 11.8642857,8.97357143 12.4557143,8.49357143 C13.94,7.31071429 15.4357143,6.12714286 16.9314286,4.95571429 C17.6571429,4.38642857 18.5721429,3.14785714 18.5721429,2.19928571 L18.5714286,2.19857143 Z M20,1.78571429 L20,13.9285714 C20,14.9107143 19.1964286,15.7142857 18.2142857,15.7142857 L1.78571429,15.7142857 C0.803571429,15.7142857 0,14.9107143 0,13.9285714 L0,1.78571429 C0,0.803571429 0.803571429,0 1.78571429,0 L18.2142857,0 C19.1964286,0 20,0.803571429 20,1.78571429 Z" id="envelope" fill="#404F63"></path>
    </g>
</svg>