<?xml version="1.0" encoding="UTF-8"?>
<svg width="19px" height="20px" viewBox="0 0 19 20" version="1.1" xmlns="http://www.w3.org/2000/svg" xmlns:xlink="http://www.w3.org/1999/xlink">
    <!-- Generator: Sketch 41.2 (35397) - http://www.bohemiancoding.com/sketch -->
    <title>file-blogpost-draft</title>
    <desc>Created with Sketch.</desc>
    <defs></defs>
    <g id="Page-1" stroke="none" stroke-width="1" fill="none" fill-rule="evenodd">
        <path d="M17.1428571,8.58259379 L17.1428571,18.9285714 C17.1428571,19.52 16.6628571,20 16.0714286,20 L1.07142857,20 C0.48,20 0,19.52 0,18.9285714 L0,1.07142857 C0,0.48 0.48,0 1.07142857,0 L11.0714286,0 C11.6628571,0 12.4885714,0.345714286 12.9014286,0.758571429 L13.3462498,1.20339264 L12.2729532,2.21331459 L11.498537,1.43827002 L1.42928571,1.42857143 L1.42928571,18.5714286 L15.715,18.5714286 L15.763308,10 L17.1428571,8.58259379 Z M18.1428571,5.59411964 C18.1428571,5.93059311 18.0040856,6.25756168 17.7766017,6.48504562 L16.1328876,8.12875972 L12.0140974,4.00996958 L13.6578115,2.37639405 C13.8852955,2.13877154 14.212264,2 14.5487375,2 C14.885211,2 15.2121795,2.13877154 15.4498021,2.37639405 L17.7766017,4.69305509 C18.0040856,4.93067759 18.1428571,5.25764616 18.1428571,5.59411964 Z M11.3804374,4.6436296 L15.4992275,8.76241974 L7.26164727,17 L3.14285714,17 L3.14285714,12.8812099 L11.3804374,4.6436296 Z M11.9152465,6.54460967 C11.9152465,6.41597668 11.8259004,6.32663062 11.6972674,6.32663062 C11.6377034,6.32663062 11.578773,6.34627408 11.5287139,6.39569956 L6.16224714,11.7621663 C6.11282166,11.8115918 6.0931782,11.8711558 6.0931782,11.9307198 C6.0931782,12.0593528 6.18252426,12.1486989 6.31115724,12.1486989 C6.37072129,12.1486989 6.42965167,12.1290554 6.47971081,12.0796299 L11.8461775,6.71316323 C11.895603,6.66373775 11.9152465,6.60417371 11.9152465,6.54460967 Z M6.73697678,15.73268 L7.63804133,14.8316154 L5.31124173,12.5048158 L4.41017718,13.4058804 L4.41017718,14.4653599 L5.67749722,14.4653599 L5.67749722,15.73268 L6.73697678,15.73268 L6.73697678,15.73268 Z" id="file-blogpost-draft" fill="#FF6363"></path>
    </g>
</svg>