<?xml version="1.0" encoding="UTF-8"?>
<svg width="18px" height="20px" viewBox="0 0 18 20" version="1.1" xmlns="http://www.w3.org/2000/svg" xmlns:xlink="http://www.w3.org/1999/xlink">
    <!-- Generator: Sketch 41.2 (35397) - http://www.bohemiancoding.com/sketch -->
    <title>file-code</title>
    <desc>Created with Sketch.</desc>
    <defs></defs>
    <g id="Page-1" stroke="none" stroke-width="1" fill="none" fill-rule="evenodd">
        <path d="M16.3842857,4.24142857 C16.7971429,4.65428571 17.1428571,5.48 17.1428571,6.07142857 L17.1428571,18.9285714 C17.1428571,19.52 16.6628571,20 16.0714286,20 L1.07142857,20 C0.48,20 0,19.52 0,18.9285714 L0,1.07142857 C0,0.48 0.48,0 1.07142857,0 L11.0714286,0 C11.6628571,0 12.4885714,0.345714286 12.9014286,0.758571429 L16.3842857,4.24142857 Z M11.4292857,1.51785714 L11.4292857,5.71428571 L15.6257143,5.71428571 C15.5585714,5.52428571 15.4585714,5.335 15.38,5.25642857 L11.8864286,1.76285714 C11.8085714,1.685 11.6185714,1.58428571 11.4285714,1.51714286 L11.4292857,1.51785714 Z M15.715,18.5714286 L15.715,7.14285714 L11.0721429,7.14285714 C10.4807143,7.14285714 10.0007143,6.66285714 10.0007143,6.07142857 L10.0007143,1.42857143 L1.42928571,1.42857143 L1.42928571,18.5714286 L15.715,18.5714286 Z M5.35785714,8.57142857 C5.48071429,8.415 5.70357143,8.38142857 5.86,8.50428571 L6.42928571,8.92857143 C6.58571429,9.05142857 6.61928571,9.27428571 6.49642857,9.43071429 L4.465,12.1428571 L6.49642857,14.855 C6.61928571,15.0114286 6.58571429,15.2342857 6.42928571,15.3571429 L5.86,15.7814286 C5.70357143,15.9042857 5.48071429,15.8707143 5.35785714,15.7142857 L2.83571429,12.355 C2.74642857,12.2321429 2.74642857,12.0535714 2.83571429,11.9307143 L5.35785714,8.57142857 Z M14.3085714,11.9307143 C14.3978571,12.0535714 14.3978571,12.2321429 14.3085714,12.355 L11.7864286,15.7142857 C11.6635714,15.8707143 11.4407143,15.9042857 11.2842857,15.7814286 L10.715,15.3571429 C10.5585714,15.2342857 10.525,15.0114286 10.6478571,14.855 L12.6792857,12.1428571 L10.6478571,9.43071429 C10.525,9.27428571 10.5585714,9.05142857 10.715,8.92857143 L11.2842857,8.50428571 C11.4407143,8.38142857 11.6635714,8.415 11.7864286,8.57142857 L14.3085714,11.9307143 Z M7.38928571,17.0757143 C7.18857143,17.0421429 7.06571429,16.8521429 7.09928571,16.6628571 L8.63928571,7.38857143 C8.67285714,7.18785714 8.86285714,7.065 9.05214286,7.09857143 L9.755,7.21 C9.95571429,7.24357143 10.0785714,7.43357143 10.045,7.62285714 L8.505,16.8971429 C8.47142857,17.0978571 8.28142857,17.2207143 8.09214286,17.1871429 L7.38928571,17.0757143 Z" id="file-code" fill="#404F63"></path>
    </g>
</svg>