<?xml version="1.0" encoding="UTF-8"?>
<svg width="20px" height="17px" viewBox="0 0 20 17" version="1.1" xmlns="http://www.w3.org/2000/svg" xmlns:xlink="http://www.w3.org/1999/xlink">
    <!-- Generator: Sketch 41.2 (35397) - http://www.bohemiancoding.com/sketch -->
    <title>folder</title>
    <desc>Created with Sketch.</desc>
    <defs></defs>
    <g id="Page-1" stroke="none" stroke-width="1" fill="none" fill-rule="evenodd">
        <path d="M18.4615385,14.2307692 L18.4615385,5.76923077 C18.4615385,5.13230769 17.9446154,4.61538462 17.3076923,4.61538462 L8.84615385,4.61538462 C8.20923077,4.61538462 7.69230769,4.09846154 7.69230769,3.46153846 L7.69230769,2.69230769 C7.69230769,2.05538462 7.17538462,1.53846154 6.53846154,1.53846154 L2.69230769,1.53846154 C2.05538462,1.53846154 1.53846154,2.05538462 1.53846154,2.69230769 L1.53846154,14.2307692 C1.53846154,14.8676923 2.05538462,15.3846154 2.69230769,15.3846154 L17.3076923,15.3846154 C17.9446154,15.3846154 18.4615385,14.8676923 18.4615385,14.2307692 Z M20,5.76923077 L20,14.2307692 C20,15.7092308 18.7861538,16.9230769 17.3076923,16.9230769 L2.69230769,16.9230769 C1.21384615,16.9230769 0,15.7092308 0,14.2307692 L0,2.69230769 C0,1.21384615 1.21384615,0 2.69230769,0 L6.53846154,0 C8.01692308,0 9.23076923,1.21384615 9.23076923,2.69230769 L9.23076923,3.07692308 L17.3076923,3.07692308 C18.7861538,3.07692308 20,4.29076923 20,5.76923077 Z" id="folder" fill="#404F63"></path>
    </g>
</svg>