<?xml version="1.0" encoding="UTF-8"?>
<svg width="12px" height="12px" viewBox="0 0 12 12" version="1.1" xmlns="http://www.w3.org/2000/svg" xmlns:xlink="http://www.w3.org/1999/xlink">
    <!-- Generator: Sketch 41.2 (35397) - http://www.bohemiancoding.com/sketch -->
    <title>plus</title>
    <desc>Created with Sketch.</desc>
    <defs></defs>
    <g id="Page-1" stroke="none" stroke-width="1" fill="none" fill-rule="evenodd">
        <path d="M12,5.57142857 L12,6.42857143 C12,6.66942857 11.8122857,6.85714286 11.5714286,6.85714286 L6.85714286,6.85714286 L6.85714286,11.5714286 C6.85714286,11.8122857 6.66942857,12 6.42857143,12 L5.57142857,12 C5.33057143,12 5.14285714,11.8122857 5.14285714,11.5714286 L5.14285714,6.85714286 L0.428571429,6.85714286 C0.187714286,6.85714286 0,6.66942857 0,6.42857143 L0,5.57142857 C0,5.33057143 0.187714286,5.14285714 0.428571429,5.14285714 L5.14285714,5.14285714 L5.14285714,0.428571429 C5.14285714,0.187714286 5.33057143,0 5.57142857,0 L6.42857143,0 C6.66942857,0 6.85714286,0.187714286 6.85714286,0.428571429 L6.85714286,5.14285714 L11.5714286,5.14285714 C11.8122857,5.14285714 12,5.33057143 12,5.57142857 Z" id="plus" fill="#404F63"></path>
    </g>
</svg>