<?xml version="1.0" encoding="UTF-8"?>
<svg width="18px" height="20px" viewBox="0 0 18 20" version="1.1" xmlns="http://www.w3.org/2000/svg" xmlns:xlink="http://www.w3.org/1999/xlink">
    <!-- Generator: Sketch 41.2 (35397) - http://www.bohemiancoding.com/sketch -->
    <title>user-admin</title>
    <desc>Created with Sketch.</desc>
    <defs></defs>
    <g id="Page-1" stroke="none" stroke-width="1" fill="none" fill-rule="evenodd">
        <path d="M13.4042857,8.75 C14.9778571,9.20785714 17.1428571,10.7585714 17.1428571,15.8371429 C17.1428571,18.1364286 15.435,20 13.3371429,20 L3.80571429,20 C1.70714286,20 0,18.1364286 0,15.8371429 C0,10.7592857 2.165,9.20785714 3.73857143,8.75 C3.18071429,7.86857143 2.85714286,6.83 2.85714286,5.71428571 C2.85714286,2.56714286 5.42428571,0 8.57142857,0 C11.7185714,0 14.2857143,2.56714286 14.2857143,5.71428571 C14.2857143,6.83071429 13.9621429,7.86857143 13.4042857,8.75 Z M8.57142857,1.42857143 C6.205,1.42857143 4.28571429,3.34857143 4.28571429,5.71428571 C4.28571429,8.08 6.20571429,10 8.57142857,10 C10.9371429,10 12.8571429,8.08 12.8571429,5.71428571 C12.8571429,3.34857143 10.9371429,1.42857143 8.57142857,1.42857143 Z M13.3371429,18.5714286 C14.6428571,18.5714286 15.7142857,17.355 15.7142857,15.8371429 C15.7142857,12.3214286 14.5314286,10.1228571 12.3214286,10.0114286 C11.3171429,10.8928571 10.0114286,11.4285714 8.57142857,11.4285714 C7.13142857,11.4285714 5.82571429,10.8928571 4.82142857,10.0114286 C2.61142857,10.1228571 1.42857143,12.3214286 1.42857143,15.8371429 C1.42857143,17.355 2.5,18.5714286 3.80571429,18.5714286 L13.3371429,18.5714286 L13.3371429,18.5714286 Z" id="user-admin" fill="#6EB96F"></path>
    </g>
</svg>