<?xml version="1.0" encoding="UTF-8"?>
<svg width="8px" height="8px" viewBox="0 0 8 8" version="1.1" xmlns="http://www.w3.org/2000/svg" xmlns:xlink="http://www.w3.org/1999/xlink">
    <!-- Generator: Sketch 41.2 (35397) - http://www.bohemiancoding.com/sketch -->
    <title>bold</title>
    <desc>Created with Sketch.</desc>
    <defs></defs>
    <g id="Page-1" stroke="none" stroke-width="1" fill="none" fill-rule="evenodd">
        <g id="bold" fill="#000000">
            <g id="Page-1">
                <path d="M3.22138085,7.25533333 C3.47826973,7.36644447 3.72138085,7.422 3.95071418,7.422 C5.25626973,7.422 5.90904751,6.84044447 5.90904751,5.67733333 C5.90904751,5.28155555 5.83782529,4.96911111 5.69538085,4.74 C5.60160307,4.58711111 5.49482529,4.45866667 5.37504751,4.35466667 C5.25526973,4.25066667 5.13804751,4.16988889 5.02338085,4.11233333 C4.90871418,4.05477778 4.7689364,4.01133333 4.60404751,3.982 C4.43915863,3.95266667 4.29326973,3.93444445 4.16638085,3.92733333 C4.03949196,3.92022222 3.87538085,3.91677778 3.67404751,3.917 C3.42049196,3.917 3.24515863,3.93433333 3.14804751,3.969 C3.14804751,4.153 3.14715863,4.429 3.14538085,4.797 C3.14360307,5.165 3.14271418,5.43933333 3.14271418,5.62 C3.14271418,5.64777778 3.1409364,5.765 3.13738085,5.97166667 C3.13382529,6.17833333 3.1329364,6.34588889 3.13471418,6.47433333 C3.13649196,6.60277778 3.14426973,6.7477778 3.15804751,6.90933333 C3.17182529,7.07088887 3.19260307,7.18633333 3.22038085,7.25566667 L3.22138085,7.25533333 Z M3.14838085,3.36966667 C3.29415863,3.39388889 3.48338085,3.406 3.71604751,3.406 C4.00071418,3.406 4.2489364,3.38344445 4.46071418,3.33833333 C4.67249196,3.29322222 4.86349196,3.216 5.03371418,3.10666667 C5.2039364,2.99733333 5.33326973,2.842 5.42171418,2.64066667 C5.51015863,2.43933333 5.55438085,2.19277778 5.55438085,1.901 C5.55438085,1.65788889 5.50404751,1.44522222 5.40338085,1.263 C5.30271418,1.08077778 5.16560307,0.938444447 4.99204751,0.836 C4.81849196,0.733555553 4.63104751,0.658 4.42971418,0.609333333 C4.22838085,0.560666667 4.01315863,0.536333333 3.78404751,0.536333333 C3.61049196,0.536333333 3.38482529,0.558888889 3.10704751,0.604 C3.10704751,0.777555553 3.11404751,1.03966667 3.12804751,1.39033333 C3.14204751,1.741 3.14904751,2.00488889 3.14904751,2.182 C3.14904751,2.27577778 3.14815863,2.41466667 3.14638085,2.59866667 C3.14460307,2.78266667 3.14371418,2.91977778 3.14371418,3.01 C3.14371418,3.16977778 3.14549196,3.28955555 3.14904751,3.36933333 L3.14838085,3.36966667 Z M0.330714181,8 L0.341047514,7.51033333 C0.393047514,7.49633333 0.540603069,7.46855553 0.78371418,7.427 C1.02682529,7.38544447 1.21082529,7.33855553 1.33571418,7.28633333 C1.3599364,7.2447778 1.38160307,7.19788887 1.40071418,7.14566667 C1.41982529,7.09344447 1.43460307,7.03533333 1.44504751,6.97133333 C1.45549196,6.90733333 1.46504751,6.85088887 1.47371418,6.802 C1.48238085,6.75311113 1.48760307,6.688 1.48938085,6.60666667 C1.49115863,6.52533333 1.49204751,6.46633333 1.49204751,6.42966667 L1.49204751,6.08866667 C1.49204751,2.67888889 1.45382529,0.899333333 1.37738085,0.75 C1.36338085,0.72222222 1.32515863,0.697 1.26271418,0.674333333 C1.20026973,0.651666667 1.12304751,0.632555555 1.03104751,0.617 C0.939047513,0.601444445 0.853158627,0.589333333 0.773380847,0.580666667 C0.693603067,0.572 0.609380847,0.564222222 0.520714181,0.557333333 C0.432047514,0.550444445 0.379047514,0.545222222 0.361714181,0.541666667 L0.340714181,0.109333333 C0.6809364,0.102444445 1.27126973,0.0824444447 2.11171418,0.0493333333 C2.95215863,0.0162222222 3.59971418,-0.000222222222 4.05438085,1.22124448e-15 C4.13415863,1.22124448e-15 4.25304751,0.000888888887 4.41104751,0.00266666667 C4.56904751,0.00444444445 4.68626973,0.00533333333 4.76271418,0.00533333333 C5.00582529,0.00533333333 5.24282529,0.0278888889 5.47371418,0.073 C5.70460307,0.118111111 5.92771418,0.191 6.14304751,0.291666667 C6.35838085,0.392333333 6.54582529,0.515555555 6.70538087,0.661333333 C6.8649364,0.807111113 6.99338087,0.988555553 7.0907142,1.20566667 C7.18804753,1.42277778 7.2367142,1.66144445 7.2367142,1.92166667 C7.2367142,2.10211111 7.20804753,2.26788889 7.1507142,2.419 C7.09338087,2.57011111 7.0257142,2.69511111 6.9477142,2.794 C6.8697142,2.89288889 6.7577142,2.99266667 6.61171418,3.09333333 C6.46571418,3.194 6.3389364,3.27211111 6.23138085,3.32766667 C6.12382529,3.38322222 5.9779364,3.45266667 5.79371418,3.536 C6.32838085,3.65755555 6.7737142,3.89022222 7.1297142,4.234 C7.4857142,4.57777778 7.6637142,5.00833333 7.6637142,5.52566667 C7.6637142,5.873 7.6029364,6.18466667 7.48138087,6.46066667 C7.35982527,6.73666667 7.19749193,6.9632222 6.99438087,7.14033333 C6.79126973,7.31744447 6.55171418,7.46588887 6.27571418,7.58566667 C5.99971418,7.70544447 5.71582529,7.78966667 5.42404751,7.83833333 C5.13226973,7.887 4.82671418,7.91133333 4.50738085,7.91133333 C4.35449196,7.91133333 4.12526973,7.90611113 3.81971418,7.89566667 C3.51415863,7.8852222 3.2849364,7.88 3.13204751,7.88 C2.76404751,7.88 2.23104751,7.89911113 1.53304751,7.93733333 C0.835047513,7.97555553 0.434047514,7.99633333 0.330047514,7.99966667 L0.330714181,8 Z" id="bold"></path>
            </g>
        </g>
    </g>
</svg>