<?xml version="1.0" encoding="UTF-8"?>
<svg width="9px" height="9px" viewBox="0 0 9 9" version="1.1" xmlns="http://www.w3.org/2000/svg" xmlns:xlink="http://www.w3.org/1999/xlink">
    <!-- Generator: Sketch 41.2 (35397) - http://www.bohemiancoding.com/sketch -->
    <title>bold</title>
    <desc>Created with Sketch.</desc>
    <defs></defs>
    <g id="Page-1" stroke="none" stroke-width="1" fill="none" fill-rule="evenodd">
        <g id="bold" fill="#000000">
            <g id="Page-1">
                <path d="M3.62405345,8.16225 C3.91305345,8.28725002 4.18655345,8.34975 4.44455345,8.34975 C5.91330345,8.34975 6.64767845,7.69550002 6.64767845,6.387 C6.64767845,5.94175 6.56755345,5.59025 6.40730345,5.3325 C6.30180345,5.1605 6.18167846,5.016 6.04692845,4.899 C5.91217845,4.782 5.78030345,4.691125 5.65130345,4.626375 C5.52230345,4.561625 5.36505345,4.51275 5.17955345,4.47975 C4.99405345,4.44675 4.82992845,4.42625 4.68717845,4.41825 C4.54442846,4.41025 4.35980345,4.406375 4.13330345,4.406625 C3.84805346,4.406625 3.65080345,4.426125 3.54155345,4.465125 C3.54155345,4.672125 3.54055346,4.982625 3.53855345,5.396625 C3.53655345,5.810625 3.53555345,6.11925 3.53555345,6.3225 C3.53555345,6.35375 3.53355345,6.485625 3.52955345,6.718125 C3.52555345,6.950625 3.52455345,7.139125 3.52655345,7.283625 C3.52855346,7.428125 3.53730345,7.59125002 3.55280345,7.773 C3.56830346,7.95474997 3.59167845,8.084625 3.62292845,8.162625 L3.62405345,8.16225 Z M3.54192845,3.790875 C3.70592845,3.818125 3.91880345,3.83175 4.18055345,3.83175 C4.50080345,3.83175 4.78005345,3.806375 5.01830345,3.755625 C5.25655345,3.704875 5.47142845,3.618 5.66292845,3.495 C5.85442845,3.372 5.99992845,3.19725 6.09942845,2.97075 C6.19892845,2.74425 6.24867845,2.466875 6.24867845,2.138625 C6.24867845,1.865125 6.19205345,1.625875 6.07880345,1.420875 C5.96555345,1.215875 5.81130345,1.05575 5.61605345,0.9405 C5.42080345,0.825249997 5.20992845,0.74025 4.98342845,0.6855 C4.75692845,0.63075 4.51480345,0.603375 4.25705345,0.603375 C4.06180345,0.603375 3.80792845,0.62875 3.49542845,0.6795 C3.49542845,0.874749997 3.50330345,1.169625 3.51905345,1.564125 C3.53480345,1.958625 3.54267845,2.2555 3.54267845,2.45475 C3.54267845,2.56025 3.54167845,2.7165 3.53967845,2.9235 C3.53767845,3.1305 3.53667845,3.28475 3.53667845,3.38625 C3.53667845,3.566 3.53867845,3.70075 3.54267845,3.7905 L3.54192845,3.790875 Z M0.372053453,9 L0.383678453,8.449125 C0.442178453,8.433375 0.608178453,8.40212497 0.881678453,8.355375 C1.15517846,8.30862502 1.36217846,8.25587497 1.50267845,8.197125 C1.52992845,8.15037502 1.55430345,8.09762497 1.57580345,8.038875 C1.59730346,7.98012502 1.61392845,7.91475 1.62567845,7.84275 C1.63742846,7.77075 1.64817845,7.70724997 1.65792845,7.65225 C1.66767845,7.59725002 1.67355345,7.524 1.67555345,7.4325 C1.67755346,7.341 1.67855345,7.274625 1.67855345,7.233375 L1.67855345,6.84975 C1.67855345,3.01375 1.63555346,1.01175 1.54955345,0.84375 C1.53380345,0.812499998 1.49080346,0.784125 1.42055345,0.758625 C1.35030345,0.733125 1.26342845,0.711625 1.15992845,0.694125 C1.05642845,0.676625 0.959803455,0.663 0.870053453,0.65325 C0.78030345,0.6435 0.685553453,0.63475 0.585803453,0.627 C0.486053453,0.61925 0.426428453,0.613375 0.406928453,0.609375 L0.383303453,0.123 C0.76605345,0.11525 1.43017845,0.0927500003 2.37567845,0.0555 C3.32117846,0.01825 4.04967845,-0.00025 4.56117845,1.37390015e-15 C4.65092846,1.37390015e-15 4.78467845,0.000999999998 4.96242845,0.003 C5.14017845,0.005 5.27205345,0.006 5.35805345,0.006 C5.63155346,0.006 5.89817846,0.031375 6.15792845,0.082125 C6.41767845,0.132875 6.66867845,0.214875 6.91092845,0.328125 C7.15317845,0.441375 7.36405345,0.58 7.54355347,0.744 C7.72305345,0.908000003 7.86755347,1.112125 7.97705347,1.356375 C8.08655347,1.600625 8.14130348,1.869125 8.14130348,2.161875 C8.14130348,2.364875 8.10905347,2.551375 8.04455347,2.721375 C7.98005348,2.891375 7.90392847,3.032 7.81617848,3.14325 C7.72842847,3.2545 7.60242847,3.36675 7.43817845,3.48 C7.27392845,3.59325 7.13130345,3.681125 7.01030345,3.743625 C6.88930345,3.806125 6.72517845,3.88425 6.51792845,3.978 C7.11942845,4.11475 7.62042847,4.3765 8.02092847,4.76325 C8.42142848,5.15 8.62167847,5.634375 8.62167847,6.216375 C8.62167847,6.607125 8.55330345,6.95775 8.41655347,7.26825 C8.27980343,7.57875 8.09717842,7.83362497 7.86867848,8.032875 C7.64017845,8.23212502 7.37067845,8.39912497 7.06017845,8.533875 C6.74967845,8.66862502 6.43030345,8.763375 6.10205345,8.818125 C5.77380345,8.872875 5.43005345,8.90025 5.07080345,8.90025 C4.89880346,8.90025 4.64092845,8.89437502 4.29717845,8.882625 C3.95342846,8.87087497 3.69555345,8.865 3.52355345,8.865 C3.10955345,8.865 2.50992845,8.88650002 1.72467845,8.9295 C0.939428453,8.97249997 0.488303453,8.995875 0.371303453,8.999625 L0.372053453,9 Z" id="bold"></path>
            </g>
        </g>
    </g>
</svg>