<?xml version="1.0" encoding="UTF-8"?>
<svg width="18px" height="20px" viewBox="0 0 18 20" version="1.1" xmlns="http://www.w3.org/2000/svg" xmlns:xlink="http://www.w3.org/1999/xlink">
    <!-- Generator: Sketch 41.2 (35397) - http://www.bohemiancoding.com/sketch -->
    <title>file-text-draft</title>
    <desc>Created with Sketch.</desc>
    <defs></defs>
    <g id="Page-1" stroke="none" stroke-width="1" fill="none" fill-rule="evenodd">
        <path d="M16.3842857,4.24142857 C16.7971429,4.65428571 17.1428571,5.48 17.1428571,6.07142857 L17.1428571,18.9285714 C17.1428571,19.52 16.6628571,20 16.0714286,20 L1.07142857,20 C0.48,20 0,19.52 0,18.9285714 L0,1.07142857 C0,0.48 0.48,0 1.07142857,0 L11.0714286,0 C11.6628571,0 12.4885714,0.345714286 12.9014286,0.758571429 L16.3842857,4.24142857 Z M11.4292857,1.51785714 L11.4292857,5.71428571 L15.6257143,5.71428571 C15.5585714,5.52428571 15.4585714,5.335 15.38,5.25642857 L11.8864286,1.76285714 C11.8085714,1.685 11.6185714,1.58428571 11.4285714,1.51714286 L11.4292857,1.51785714 Z M15.715,18.5714286 L15.715,7.14285714 L11.0721429,7.14285714 C10.4807143,7.14285714 10.0007143,6.66285714 10.0007143,6.07142857 L10.0007143,1.42857143 L1.42928571,1.42857143 L1.42928571,18.5714286 L15.715,18.5714286 Z M4.28642857,8.92857143 C4.28642857,8.72785714 4.44285714,8.57142857 4.64357143,8.57142857 L12.5007143,8.57142857 C12.7014286,8.57142857 12.8578571,8.72785714 12.8578571,8.92857143 L12.8578571,9.64285714 C12.8578571,9.84357143 12.7014286,10 12.5007143,10 L4.64357143,10 C4.44285714,10 4.28642857,9.84357143 4.28642857,9.64285714 L4.28642857,8.92857143 Z M12.5007143,11.4285714 C12.7014286,11.4285714 12.8578571,11.585 12.8578571,11.7857143 L12.8578571,12.5 C12.8578571,12.7007143 12.7014286,12.8571429 12.5007143,12.8571429 L4.64357143,12.8571429 C4.44285714,12.8571429 4.28642857,12.7007143 4.28642857,12.5 L4.28642857,11.7857143 C4.28642857,11.585 4.44285714,11.4285714 4.64357143,11.4285714 L12.5007143,11.4285714 Z M12.5007143,14.2857143 C12.7014286,14.2857143 12.8578571,14.4421429 12.8578571,14.6428571 L12.8578571,15.3571429 C12.8578571,15.5578571 12.7014286,15.7142857 12.5007143,15.7142857 L4.64357143,15.7142857 C4.44285714,15.7142857 4.28642857,15.5578571 4.28642857,15.3571429 L4.28642857,14.6428571 C4.28642857,14.4421429 4.44285714,14.2857143 4.64357143,14.2857143 L12.5007143,14.2857143 Z" id="file-text-draft" fill="#FF6363"></path>
    </g>
</svg>