<?xml version="1.0" encoding="UTF-8"?>
<svg width="12px" height="8px" viewBox="0 0 12 8" version="1.1" xmlns="http://www.w3.org/2000/svg" xmlns:xlink="http://www.w3.org/1999/xlink">
    <!-- Generator: Sketch 41.2 (35397) - http://www.bohemiancoding.com/sketch -->
    <title>H1</title>
    <desc>Created with Sketch.</desc>
    <defs></defs>
    <g id="Page-1" stroke="none" stroke-width="1" fill="none" fill-rule="evenodd">
        <g id="H1" fill="#000000">
            <g id="Page-1">
                <g>
                    <path d="M0,0 L0,8 L1.75910364,8 L1.75910364,4.54901961 L4.99719888,4.54901961 L4.99719888,8 L6.75630252,8 L6.75630252,0 L4.99719888,0 L4.99719888,3.07002801 L1.75910364,3.07002801 L1.75910364,0 L0,0 Z M11.254902,8 L11.254902,0.156862745 L9.98879552,0.156862745 C9.94397736,0.45565042 9.8506076,0.705881345 9.70868344,0.907563024 C9.56675936,1.1092447 9.3930916,1.27170806 9.18767504,1.39495798 C8.98225856,1.5182079 8.7507016,1.60410806 8.4929972,1.65266106 C8.2352928,1.70121406 7.96825535,1.72175541 7.69187675,1.71428571 L7.69187675,2.91316526 L9.66386552,2.91316526 L9.66386552,8 L11.254902,8 Z" id="H1"></path>
                </g>
            </g>
        </g>
    </g>
</svg>