<?xml version="1.0" encoding="UTF-8"?>
<svg width="14px" height="8px" viewBox="0 0 14 8" version="1.1" xmlns="http://www.w3.org/2000/svg" xmlns:xlink="http://www.w3.org/1999/xlink">
    <!-- Generator: Sketch 41.2 (35397) - http://www.bohemiancoding.com/sketch -->
    <title>H2</title>
    <desc>Created with Sketch.</desc>
    <defs></defs>
    <g id="Page-1" stroke="none" stroke-width="1" fill="none" fill-rule="evenodd">
        <g id="H2" fill="#000000">
            <g id="Page-1">
                <g>
                    <path d="M0,0 L0,8 L1.75910364,8 L1.75910364,4.54901961 L4.99719888,4.54901961 L4.99719888,8 L6.75630252,8 L6.75630252,0 L4.99719888,0 L4.99719888,3.07002801 L1.75910364,3.07002801 L1.75910364,0 L0,0 Z M7.94397759,3.17086834 L9.46778712,3.17086834 C9.46778712,2.96171698 9.48832848,2.75070134 9.52941176,2.53781513 C9.57049504,2.3249289 9.63958872,2.13071983 9.73669464,1.95518207 C9.83380064,1.77964431 9.96265096,1.6377223 10.1232493,1.52941177 C10.2838477,1.42110123 10.4799242,1.36694678 10.7114846,1.36694678 C11.0550904,1.36694678 11.337067,1.47338829 11.557423,1.68627451 C11.7777789,1.89916073 11.8879552,2.19607653 11.8879552,2.57703082 C11.8879552,2.81606095 11.8338007,3.02894398 11.7254902,3.21568627 C11.6171797,3.40242857 11.4827272,3.57049412 11.3221289,3.71988795 C11.1615305,3.86928179 10.9841279,4.00560162 10.789916,4.12885154 C10.595704,4.25210146 10.4126993,4.37348213 10.2408963,4.4929972 C9.90476024,4.72455765 9.58543568,4.95237983 9.2829132,5.17647059 C8.98039064,5.40056134 8.71708792,5.64519009 8.4929972,5.91036414 C8.26890648,6.17553821 8.09150392,6.47618879 7.96078431,6.81232493 C7.8300647,7.14846106 7.76470588,7.54434879 7.76470588,8 L13.5238095,8 L13.5238095,6.63305322 L9.81512608,6.63305322 C10.009338,6.36414431 10.2334254,6.12885255 10.487395,5.92717087 C10.7413645,5.72548918 11.0027998,5.5368823 11.2717087,5.36134454 C11.5406176,5.18580678 11.807655,5.00840426 12.0728291,4.82913166 C12.3380032,4.64985905 12.5751623,4.45004778 12.7843138,4.22969188 C12.9934651,4.00933597 13.1615306,3.75723765 13.2885154,3.47338935 C13.4155002,3.18954106 13.4789916,2.84967518 13.4789916,2.45378151 C13.4789916,2.07282722 13.4061632,1.72922655 13.2605042,1.42296918 C13.1148452,1.11671182 12.9187687,0.85901132 12.6722689,0.649859944 C12.425769,0.440708571 12.1400577,0.280112605 11.8151261,0.168067227 C11.4901945,0.0560218487 11.1484612,0 10.789916,0 C10.3193254,0 9.90289632,0.0802979832 9.54061624,0.240896358 C9.17833616,0.401494734 8.8776856,0.625582129 8.63865544,0.913165264 C8.39962536,1.2007484 8.22035544,1.5368795 8.10084032,1.92156862 C7.98132526,2.30625776 7.92903821,2.72268683 7.94397759,3.17086834 L7.94397759,3.17086834 Z" id="H2"></path>
                </g>
            </g>
        </g>
    </g>
</svg>