<?xml version="1.0" encoding="UTF-8" standalone="no"?>
<svg width="17px" height="10px" viewBox="0 0 17 10" version="1.1" xmlns="http://www.w3.org/2000/svg" xmlns:xlink="http://www.w3.org/1999/xlink">
    <!-- Generator: Sketch 3.8.3 (29802) - http://www.bohemiancoding.com/sketch -->
    <title>H2</title>
    <desc>Created with Sketch.</desc>
    <defs></defs>
    <g id="Page-1" stroke="none" stroke-width="1" fill="none" fill-rule="evenodd">
        <path d="M0,0 L0,10 L2.19887955,10 L2.19887955,5.68627451 L6.2464986,5.68627451 L6.2464986,10 L8.44537815,10 L8.44537815,0 L6.2464986,0 L6.2464986,3.83753501 L2.19887955,3.83753501 L2.19887955,0 L0,0 Z M9.92997199,3.96358543 L11.8347339,3.96358543 C11.8347339,3.70214622 11.8604106,3.43837668 11.9117647,3.17226891 C11.9631188,2.90616113 12.0494859,2.66339979 12.1708683,2.44397759 C12.2922508,2.22455539 12.4533137,2.04715287 12.6540616,1.91176471 C12.8548096,1.77637654 13.0999052,1.70868347 13.3893557,1.70868347 C13.818863,1.70868347 14.1713338,1.84173536 14.4467787,2.10784314 C14.7222236,2.37395091 14.859944,2.74509566 14.859944,3.22128852 C14.859944,3.52007619 14.7922509,3.78617997 14.6568627,4.01960784 C14.5214746,4.25303571 14.353409,4.46311765 14.1526611,4.64985994 C13.9519131,4.83660224 13.7301599,5.00700203 13.487395,5.16106443 C13.24463,5.31512682 13.0158741,5.46685266 12.8011204,5.6162465 C12.3809503,5.90569706 11.9817946,6.19047479 11.6036415,6.47058824 C11.2254883,6.75070168 10.8963599,7.05648761 10.6162465,7.38795518 C10.3361331,7.71942276 10.1143799,8.09523599 9.95098039,8.51540616 C9.78758088,8.93557633 9.70588235,9.43043599 9.70588235,10 L16.9047619,10 L16.9047619,8.29131653 L12.2689076,8.29131653 C12.5116725,7.95518039 12.7917818,7.66106569 13.1092437,7.40896359 C13.4267056,7.15686148 13.7534997,6.92110287 14.0896359,6.70168067 C14.425772,6.48225847 14.7595688,6.26050532 15.0910364,6.03641457 C15.422504,5.81232381 15.7189529,5.56255973 15.9803922,5.28711485 C16.2418314,5.01166996 16.4519133,4.69654706 16.6106443,4.34173669 C16.7693752,3.98692633 16.8487395,3.56209398 16.8487395,3.06722689 C16.8487395,2.59103403 16.757704,2.16153319 16.5756303,1.77871148 C16.3935565,1.39588978 16.1484609,1.07376415 15.8403361,0.81232493 C15.5322113,0.550885714 15.1750721,0.350140756 14.7689076,0.210084034 C14.3627431,0.0700273109 13.9355765,0 13.487395,0 C12.8991567,0 12.3786204,0.100372479 11.9257703,0.301120448 C11.4729202,0.501868417 11.097107,0.781977661 10.7983193,1.14145658 C10.4995317,1.5009355 10.2754443,1.92109937 10.1260504,2.40196078 C9.97665658,2.8828222 9.91129776,3.40335854 9.92997199,3.96358543 L9.92997199,3.96358543 Z" id="H2" fill="#000000"></path>
    </g>
</svg>