<?xml version="1.0" encoding="UTF-8" standalone="no"?>
<svg width="17px" height="10px" viewBox="0 0 17 10" version="1.1" xmlns="http://www.w3.org/2000/svg" xmlns:xlink="http://www.w3.org/1999/xlink">
    <!-- Generator: Sketch 3.8.3 (29802) - http://www.bohemiancoding.com/sketch -->
    <title>H3</title>
    <desc>Created with Sketch.</desc>
    <defs></defs>
    <g id="Page-1" stroke="none" stroke-width="1" fill="none" fill-rule="evenodd">
        <path d="M0.112594479,0 L0.112594479,9.82118294 L2.27215431,9.82118294 L2.27215431,5.58459422 L6.24739503,5.58459422 L6.24739503,9.82118294 L8.40695486,9.82118294 L8.40695486,0 L6.24739503,0 L6.24739503,3.76891334 L2.27215431,3.76891334 L2.27215431,0 L0.112594479,0 Z M12.4922368,4.08528198 L12.4922368,5.4607978 C12.7306608,5.4607978 12.9805437,5.46767531 13.241893,5.48143054 C13.5032423,5.49518576 13.7439551,5.54562084 13.9640388,5.63273728 C14.1841224,5.71985371 14.3652302,5.85969642 14.5073675,6.0522696 C14.6495049,6.24484278 14.7205725,6.5245282 14.7205725,6.89133425 C14.7205725,7.35901197 14.5692672,7.72810502 14.2666523,7.99862448 C13.9640373,8.26914395 13.5926517,8.40440165 13.1524844,8.40440165 C12.8682097,8.40440165 12.6229119,8.35396657 12.4165835,8.25309491 C12.2102551,8.15222325 12.0383173,8.01696554 11.900765,7.84731774 C11.7632128,7.67766994 11.6577576,7.47592964 11.5843964,7.24209078 C11.5110352,7.00825193 11.4697701,6.76295406 11.4606,6.50618982 L9.60365363,6.50618982 C9.59448347,7.06556905 9.6747211,7.56074979 9.84436889,7.99174691 C10.0140167,8.42274402 10.2547296,8.78725206 10.5665147,9.08528198 C10.8782998,9.3833119 11.2565629,9.61026974 11.7013152,9.76616231 C12.1460676,9.92205488 12.6389558,10 13.1799948,10 C13.6476725,10 14.0970031,9.9312249 14.5280003,9.79367263 C14.9589974,9.65612036 15.3395529,9.45438006 15.6696784,9.18844567 C15.9998038,8.92251128 16.2634417,8.59239078 16.4606,8.19807428 C16.6577582,7.80375777 16.7563359,7.3544271 16.7563359,6.85006878 C16.7563359,6.2998597 16.6050307,5.82760399 16.3024157,5.43328748 C15.9998007,5.03897098 15.582565,4.78221059 15.0506963,4.66299862 L15.0506963,4.63548831 C15.5000337,4.50710619 15.8370317,4.26410083 16.0617004,3.90646492 C16.2863691,3.54882902 16.3987018,3.1361784 16.3987018,2.66850069 C16.3987018,2.23750358 16.3024166,1.85694801 16.1098434,1.52682256 C15.9172703,1.19669711 15.6673874,0.917011692 15.3601873,0.687757909 C15.0529873,0.458504127 14.7068192,0.286566369 14.3216729,0.171939477 C13.9365265,0.057312586 13.551386,0 13.1662396,0 C12.6710514,0 12.2217208,0.0802376204 11.8182341,0.240715268 C11.4147474,0.401192916 11.0685794,0.628150757 10.7797197,0.921595598 C10.4908599,1.21504044 10.2661945,1.56579347 10.1057169,1.9738652 C9.94523925,2.38193693 9.85583162,2.83356011 9.83749132,3.32874828 L11.6944377,3.32874828 C11.6852675,2.83356011 11.8067702,2.42320199 12.0589494,2.09766162 C12.3111285,1.77212125 12.6848066,1.60935351 13.1799948,1.60935351 C13.5376307,1.60935351 13.8539961,1.71939367 14.1291007,1.9394773 C14.4042052,2.15956094 14.5417554,2.47592641 14.5417554,2.88858322 C14.5417554,3.16368776 14.4752728,3.38376809 14.3423056,3.54883081 C14.2093384,3.71389354 14.0396932,3.83998122 13.8333648,3.92709766 C13.6270364,4.0142141 13.4046635,4.06694168 13.1662396,4.08528198 C12.9278157,4.10362228 12.7031503,4.10362228 12.4922368,4.08528198 L12.4922368,4.08528198 Z" id="H3" fill="#000000"></path>
    </g>
</svg>