<?xml version="1.0" encoding="UTF-8"?>
<svg width="14px" height="8px" viewBox="0 0 14 8" version="1.1" xmlns="http://www.w3.org/2000/svg" xmlns:xlink="http://www.w3.org/1999/xlink">
    <!-- Generator: Sketch 41.2 (35397) - http://www.bohemiancoding.com/sketch -->
    <title>H3</title>
    <desc>Created with Sketch.</desc>
    <defs></defs>
    <g id="Page-1" stroke="none" stroke-width="1" fill="none" fill-rule="evenodd">
        <g id="H3" fill="#000000">
            <g id="Page-1">
                <g>
                    <path d="M0.0900755832,0 L0.0900755832,7.85694635 L1.81772345,7.85694635 L1.81772345,4.46767538 L4.99791602,4.46767538 L4.99791602,7.85694635 L6.72556389,7.85694635 L6.72556389,0 L4.99791602,0 L4.99791602,3.01513067 L1.81772345,3.01513067 L1.81772345,0 L0.0900755832,0 Z M9.99378944,3.26822558 L9.99378944,4.36863824 C10.1845286,4.36863824 10.384435,4.37414025 10.5935144,4.38514443 C10.8025938,4.39614861 10.9951641,4.43649667 11.171231,4.50618982 C11.3472979,4.57588297 11.4921842,4.68775714 11.605894,4.84181568 C11.7196039,4.99587422 11.776458,5.21962256 11.776458,5.5130674 C11.776458,5.88720958 11.6554138,6.18248402 11.4133218,6.39889958 C11.1712298,6.61531516 10.8741214,6.72352132 10.5219875,6.72352132 C10.2945678,6.72352132 10.0983295,6.68317326 9.9332668,6.60247593 C9.76820408,6.5217786 9.63065384,6.41357243 9.520612,6.27785419 C9.41057024,6.14213595 9.32620608,5.98074371 9.26751712,5.79367262 C9.20882816,5.60660154 9.17581608,5.41036325 9.16848,5.20495186 L7.6829229,5.20495186 C7.67558678,5.65245524 7.73977688,6.04859983 7.87549511,6.39339753 C8.01121336,6.73819522 8.20378368,7.02980165 8.45321176,7.26822558 C8.70263984,7.50664952 9.00525032,7.68821579 9.36105216,7.81292985 C9.71685408,7.9376439 10.1111646,8 10.5439958,8 C10.918138,8 11.2776025,7.94497992 11.6224002,7.8349381 C11.9671979,7.72489629 12.2716423,7.56350405 12.5357427,7.35075654 C12.799843,7.13800902 13.0107534,6.87391262 13.16848,6.55845942 C13.3262066,6.24300622 13.4050687,5.88354168 13.4050687,5.48005502 C13.4050687,5.03988776 13.2840246,4.66208319 13.0419326,4.34662998 C12.7998406,4.03117678 12.466052,3.82576847 12.040557,3.7303989 L12.040557,3.70839065 C12.400027,3.60568495 12.6696254,3.41128066 12.8493603,3.12517194 C13.0290953,2.83906322 13.1189614,2.50894272 13.1189614,2.13480055 C13.1189614,1.79000286 13.0419333,1.48555841 12.8878747,1.22145805 C12.7338162,0.957357688 12.5339099,0.733609354 12.2881498,0.550206327 C12.0423898,0.366803302 11.7654554,0.229253095 11.4573383,0.137551582 C11.1492212,0.0458500688 10.8411088,0 10.5329917,0 C10.1368411,0 9.77737664,0.0641900963 9.45458728,0.192572214 C9.13179792,0.320954333 8.85486352,0.502520606 8.62377576,0.737276478 C8.39268792,0.972032352 8.2129556,1.25263478 8.08457352,1.57909216 C7.9561914,1.90554954 7.8846653,2.26684809 7.86999306,2.66299862 L9.35555016,2.66299862 C9.348214,2.26684809 9.44541616,1.93856159 9.64715952,1.6781293 C9.8489028,1.417697 10.1478453,1.28748281 10.5439958,1.28748281 C10.8301046,1.28748281 11.0831969,1.37551494 11.3032806,1.55158184 C11.5233642,1.72764875 11.6334043,1.98074113 11.6334043,2.31086658 C11.6334043,2.53095021 11.5802182,2.70701447 11.4738445,2.83906465 C11.3674707,2.97111483 11.2317546,3.07198498 11.0666918,3.14167813 C10.9016291,3.21137128 10.7237308,3.25355334 10.5329917,3.26822558 C10.3422526,3.28289782 10.1625202,3.28289782 9.99378944,3.26822558 L9.99378944,3.26822558 Z" id="H3"></path>
                </g>
            </g>
        </g>
    </g>
</svg>