<?xml version="1.0" encoding="UTF-8"?>
<svg width="6px" height="8px" viewBox="0 0 6 8" version="1.1" xmlns="http://www.w3.org/2000/svg" xmlns:xlink="http://www.w3.org/1999/xlink">
    <!-- Generator: Sketch 41.2 (35397) - http://www.bohemiancoding.com/sketch -->
    <title>italic</title>
    <desc>Created with Sketch.</desc>
    <defs></defs>
    <g id="Page-1" stroke="none" stroke-width="1" fill="none" fill-rule="evenodd">
        <g id="italic" fill="#000000">
            <g id="Page-1">
                <g>
                    <path d="M0.330714181,7.98966667 L0.419380847,7.547 C0.440269736,7.54011113 0.581714181,7.5027778 0.84371418,7.435 C1.10571418,7.3672222 1.29926973,7.30211113 1.42438085,7.23966667 C1.52171418,7.11811113 1.5929364,6.9427778 1.63804751,6.71366667 C1.64160307,6.68944447 1.74926973,6.18766667 1.96104751,5.20833333 C2.17282529,4.229 2.37071418,3.28544445 2.55471418,2.37766667 C2.73871418,1.46988889 2.8289364,0.955111113 2.82538085,0.833333333 L2.82538085,0.703 C2.74204751,0.657888889 2.64738085,0.625777778 2.54138085,0.606666667 C2.43538085,0.587555555 2.31471418,0.573666667 2.17938085,0.565 C2.04404751,0.556333333 1.94338085,0.546777778 1.87738085,0.536333333 L1.97638085,1.77635684e-15 C2.09104751,0.00688888887 2.29938085,0.0182222222 2.60138085,0.034 C2.90338085,0.0497777778 3.1629364,0.0618888889 3.38004751,0.0703333333 C3.59715863,0.078777778 3.80638085,0.0831111113 4.00771418,0.0833333333 C4.17438085,0.0833333333 4.34538085,0.079 4.52071418,0.0703333333 C4.69604751,0.0616666667 4.90615863,0.0495555555 5.15104751,0.034 C5.3959364,0.0184444445 5.5669364,0.00711111113 5.66404751,1.77635684e-15 C5.64671418,0.135333333 5.61371418,0.289888889 5.56504751,0.463666667 C5.46082529,0.498333333 5.28460307,0.547777778 5.03638085,0.612 C4.78815863,0.67622222 4.59982529,0.734333333 4.47138085,0.786333333 C4.44360307,0.852333333 4.41926973,0.926111113 4.39838085,1.00766667 C4.37749196,1.08922222 4.36182529,1.15866667 4.35138085,1.216 C4.3409364,1.27333333 4.3279364,1.35233333 4.31238085,1.453 C4.29682529,1.55366667 4.28549196,1.62655555 4.27838085,1.67166667 C4.18460307,2.18544445 4.03271418,2.91377778 3.82271418,3.85666667 C3.61271418,4.79955555 3.47815863,5.41677778 3.41904751,5.70833333 C3.41215863,5.73966667 3.38960307,5.84033333 3.35138085,6.01033333 C3.31315863,6.18033333 3.27838085,6.33655555 3.24704751,6.479 C3.21571418,6.62144445 3.1879364,6.76644447 3.16371418,6.914 C3.13949196,7.06155553 3.12904751,7.16133333 3.13238085,7.21333333 L3.13771418,7.307 C3.19682529,7.321 3.51804751,7.3747778 4.10138085,7.46833333 C4.0909364,7.6212222 4.06315863,7.79311113 4.01804751,7.984 C3.97982529,7.984 3.92338085,7.98655553 3.84871418,7.99166667 C3.77404751,7.9967778 3.71760307,7.99933333 3.67938085,7.99933333 C3.57871418,7.99933333 3.42771418,7.982 3.22638085,7.94733333 C3.02504751,7.91266667 2.87571418,7.89533333 2.77838085,7.89533333 C2.29926973,7.88844447 1.94160307,7.885 1.70538085,7.885 C1.52826973,7.885 1.28004751,7.90066667 0.96071418,7.932 C0.641380847,7.96333333 0.431269736,7.98244447 0.330380847,7.98933333 L0.330714181,7.98966667 Z" id="italic"></path>
                </g>
            </g>
        </g>
    </g>
</svg>