<?xml version="1.0" encoding="UTF-8"?>
<svg width="7px" height="9px" viewBox="0 0 7 9" version="1.1" xmlns="http://www.w3.org/2000/svg" xmlns:xlink="http://www.w3.org/1999/xlink">
    <!-- Generator: Sketch 41.2 (35397) - http://www.bohemiancoding.com/sketch -->
    <title>italic</title>
    <desc>Created with Sketch.</desc>
    <defs></defs>
    <g id="Page-1" stroke="none" stroke-width="1" fill="none" fill-rule="evenodd">
        <g id="italic" fill="#000000">
            <g id="Page-1">
                <g>
                    <path d="M0.372053453,8.988375 L0.471803453,8.490375 C0.495303453,8.48262502 0.654428453,8.44062503 0.949178452,8.364375 C1.24392845,8.28812498 1.46167845,8.21487502 1.60242845,8.144625 C1.71192845,8.00787503 1.79205345,7.81062503 1.84280345,7.552875 C1.84680345,7.52562503 1.96792845,6.961125 2.20617845,5.859375 C2.44442845,4.757625 2.66705345,3.696125 2.87405345,2.674875 C3.08105345,1.653625 3.18255345,1.0745 3.17855345,0.9375 L3.17855345,0.790875 C3.08480345,0.740125 2.97830345,0.704 2.85905345,0.6825 C2.73980345,0.661 2.60405345,0.645375 2.45180345,0.635625 C2.29955345,0.625875 2.18630345,0.615125 2.11205345,0.603375 L2.22342845,1.77635684e-15 C2.35242845,0.00774999997 2.58680345,0.0205 2.92655345,0.03825 C3.26630345,0.056 3.55830345,0.069625 3.80255345,0.079125 C4.04680345,0.0886250002 4.28217845,0.0935000002 4.50867845,0.09375 C4.69617845,0.09375 4.88855345,0.088875 5.08580345,0.079125 C5.28305345,0.069375 5.51942845,0.05575 5.79492845,0.03825 C6.07042845,0.02075 6.26280345,0.00800000002 6.37205345,1.77635684e-15 C6.35255345,0.15225 6.31542845,0.326125 6.26067845,0.521625 C6.14342845,0.560625 5.94517845,0.61625 5.66592845,0.6885 C5.38667845,0.760749997 5.17480345,0.826125 5.03030345,0.884625 C4.99905345,0.958875 4.97167845,1.041875 4.94817845,1.133625 C4.92467845,1.225375 4.90705345,1.3035 4.89530345,1.368 C4.88355345,1.4325 4.86892845,1.521375 4.85142845,1.634625 C4.83392845,1.747875 4.82117845,1.829875 4.81317845,1.880625 C4.70767845,2.458625 4.53680345,3.278 4.30055345,4.33875 C4.06430345,5.3995 3.91292845,6.093875 3.84642845,6.421875 C3.83867845,6.457125 3.81330345,6.570375 3.77030345,6.761625 C3.72730345,6.952875 3.68817845,7.128625 3.65292845,7.288875 C3.61767845,7.449125 3.58642845,7.61225002 3.55917845,7.77825 C3.53192845,7.94424997 3.52017845,8.0565 3.52392845,8.115 L3.52992845,8.220375 C3.59642845,8.236125 3.95780345,8.29662503 4.61405345,8.401875 C4.60230345,8.57387497 4.57105345,8.76725002 4.52030345,8.982 C4.47730345,8.982 4.41380345,8.98487497 4.32980345,8.990625 C4.24580345,8.99637503 4.18230345,8.99925 4.13930345,8.99925 C4.02605345,8.99925 3.85617845,8.97975 3.62967845,8.94075 C3.40317845,8.90175 3.23517845,8.88225 3.12567845,8.88225 C2.58667845,8.87450002 2.18430345,8.870625 1.91855345,8.870625 C1.71930345,8.870625 1.44005345,8.88825 1.08080345,8.9235 C0.721553453,8.95875 0.485178453,8.98025003 0.371678453,8.988 L0.372053453,8.988375 Z" id="italic"></path>
                </g>
            </g>
        </g>
    </g>
</svg>