<?xml version="1.0" encoding="UTF-8"?>
<svg width="8px" height="8px" viewBox="0 0 8 8" version="1.1" xmlns="http://www.w3.org/2000/svg" xmlns:xlink="http://www.w3.org/1999/xlink">
    <!-- Generator: Sketch 41.2 (35397) - http://www.bohemiancoding.com/sketch -->
    <title>link</title>
    <desc>Created with Sketch.</desc>
    <defs></defs>
    <g id="Page-1" stroke="none" stroke-width="1" fill="none" fill-rule="evenodd">
        <g id="link" fill="#000000">
            <g id="Page-1">
                <g>
                    <path d="M6.99738087,5.84615385 C6.99738087,5.71794872 6.9524578,5.60902564 6.8626116,5.51938461 L5.86261161,4.51938461 C5.77276546,4.42953846 5.66384239,4.38461539 5.53584239,4.38461539 C5.40127828,4.38461539 5.28589367,4.43589743 5.18968854,4.53846154 C5.19932957,4.54810257 5.22979111,4.57774359 5.28107315,4.62738461 C5.33235521,4.67702564 5.36681675,4.71148718 5.38445777,4.73076923 C5.40209879,4.75005128 5.42609879,4.78051282 5.45645777,4.82215385 C5.48681675,4.86379487 5.50763726,4.90461539 5.51891931,4.94461539 C5.53020136,4.98461539 5.53584239,5.02871795 5.53584239,5.07692308 C5.53584239,5.20512821 5.49091931,5.31405128 5.40107315,5.40369231 C5.311227,5.49333333 5.20230393,5.53825641 5.07430393,5.53846154 C5.02630393,5.53846154 4.98220136,5.53282051 4.94199623,5.52153846 C4.90179111,5.51025641 4.86097059,5.4894359 4.81953469,5.45907692 C4.77809879,5.42871795 4.74763726,5.40471795 4.72815008,5.38707692 C4.7086629,5.3694359 4.67420136,5.33497436 4.62476546,5.28369231 C4.57532957,5.23241025 4.54568854,5.20194872 4.53584239,5.19230769 C4.42999623,5.29158975 4.37707315,5.40861539 4.37707315,5.54338461 C4.37707315,5.67158975 4.42199623,5.78051282 4.51184239,5.87015385 L5.50230393,6.8652308 C5.58886803,6.95179487 5.69779111,6.99507693 5.82907315,6.99507693 C5.95727828,6.99507693 6.06620136,6.95343587 6.15584239,6.87015387 L6.8626116,6.16830769 C6.9524578,6.07846154 6.99738087,5.97107692 6.99738087,5.84615385 L6.99738087,5.84615385 Z M3.61768854,2.45661539 C3.61768854,2.32841025 3.57276546,2.21948718 3.48291931,2.12984615 L2.49245777,1.13476923 C2.40261161,1.04492308 2.29368854,1 2.16568854,1 C2.04076546,1 1.93184239,1.04328205 1.83891931,1.12984615 L1.13215008,1.83169231 C1.04230393,1.92153846 0.997380847,2.02892308 0.997380847,2.15384615 C0.997380847,2.28205128 1.04230393,2.39097436 1.13215008,2.48061539 L2.13215008,3.48061539 C2.21871418,3.56717949 2.32763726,3.61046154 2.45891931,3.61046154 C2.59348341,3.61046154 2.70886803,3.56082051 2.80507315,3.46153846 C2.79543213,3.45189743 2.76497059,3.42225641 2.71368854,3.37261539 C2.66240649,3.32297436 2.62794495,3.28851282 2.61030393,3.26923077 C2.5926629,3.24994872 2.5686629,3.21948718 2.53830393,3.17784615 C2.50794495,3.13620513 2.48712444,3.09538461 2.47584239,3.05538461 C2.46456033,3.01538461 2.45891931,2.97128205 2.45891931,2.92307692 C2.45891931,2.79487179 2.50384239,2.68594872 2.59368854,2.59630769 C2.68353469,2.50666667 2.79245777,2.46174359 2.92045777,2.46153846 C2.96845777,2.46153846 3.01256033,2.46717949 3.05276546,2.47846154 C3.09297059,2.48974359 3.13379111,2.5105641 3.175227,2.54092308 C3.2166629,2.57128205 3.24712444,2.59528205 3.26661161,2.61292308 C3.28609879,2.6305641 3.32056033,2.66502564 3.36999623,2.71630769 C3.41943213,2.76758975 3.44907315,2.79805128 3.45891931,2.80769231 C3.56476546,2.70841025 3.61768854,2.59138461 3.61768854,2.45661539 L3.61768854,2.45661539 Z M7.9204578,5.84615385 C7.9204578,6.23076923 7.78425267,6.55610257 7.5118424,6.82215387 L6.80507313,7.524 C6.53902187,7.79005127 6.21368854,7.92307693 5.82907315,7.92307693 C5.44117572,7.92307693 5.11430393,7.7868718 4.84845777,7.51446153 L3.85799623,6.51938461 C3.59194495,6.25333333 3.45891931,5.928 3.45891931,5.54338461 C3.45891931,5.14912821 3.59994495,4.81415385 3.88199623,4.53846154 L3.45891931,4.11538461 C3.183227,4.3974359 2.84989367,4.53846154 2.45891931,4.53846154 C2.07430393,4.53846154 1.74743213,4.40379487 1.47830393,4.13446154 L0.478303924,3.13446154 C0.208970591,2.86512821 0.074303924,2.53825641 0.074303924,2.15384615 C0.074303924,1.7694359 0.210509052,1.44410257 0.482919309,1.17784615 L1.18968854,0.476 C1.45573982,0.209948718 1.78107315,0.0769230767 2.16568854,0.0769230767 C2.55358597,0.0769230767 2.88045777,0.213128205 3.14630393,0.485538461 L4.13676546,1.48061539 C4.40281675,1.74666667 4.53584239,2.072 4.53584239,2.45661539 C4.53584239,2.85087179 4.39481675,3.18584615 4.11276546,3.46153846 L4.53584239,3.88461539 C4.81153469,3.6025641 5.14486803,3.46153846 5.53584239,3.46153846 C5.92045777,3.46153846 6.24732957,3.59620513 6.51645777,3.86553846 L7.5164578,4.86553846 C7.78579113,5.13487179 7.9204578,5.46174359 7.9204578,5.84615385 L7.9204578,5.84615385 Z" id="link"></path>
                </g>
            </g>
        </g>
    </g>
</svg>