<?xml version="1.0" encoding="UTF-8"?>
<svg width="11px" height="11px" viewBox="0 0 11 11" version="1.1" xmlns="http://www.w3.org/2000/svg" xmlns:xlink="http://www.w3.org/1999/xlink">
    <!-- Generator: Sketch 41.2 (35397) - http://www.bohemiancoding.com/sketch -->
    <title>link</title>
    <desc>Created with Sketch.</desc>
    <defs></defs>
    <g id="Page-1" stroke="none" stroke-width="1" fill="none" fill-rule="evenodd">
        <g id="link" fill="#000000">
            <g id="Page-1">
                <g>
                    <path d="M8.90712134,7.43947963 C8.90712134,7.27608094 8.84986645,7.13725741 8.73535659,7.02300904 L7.4608468,5.74849924 C7.346337,5.63398943 7.20751348,5.57673454 7.04437622,5.57673454 C6.87287295,5.57673454 6.72581413,5.64209401 6.60319975,5.77281297 C6.61548733,5.78510055 6.65431086,5.82287832 6.71967034,5.88614629 C6.78502981,5.94941427 6.82895139,5.99333584 6.85143505,6.01791101 C6.8739187,6.04248616 6.90450693,6.08130969 6.94319975,6.13438159 C6.98189256,6.18745349 7.00842851,6.23947963 7.02280759,6.29046002 C7.03718668,6.34144042 7.04437622,6.39764956 7.04437622,6.45908748 C7.04437622,6.62248617 6.98712131,6.76130969 6.87261151,6.87555806 C6.75810171,6.98980643 6.61927818,7.04706133 6.45614093,7.04732277 C6.39496446,7.04732277 6.3387553,7.04013322 6.28751348,7.02575414 C6.23627165,7.01137506 6.1842455,6.98483911 6.13143504,6.94614629 C6.07862458,6.90745348 6.03980106,6.87686525 6.01496446,6.85438159 C5.99012786,6.83189793 5.94620629,6.78797636 5.88319975,6.72261688 C5.82019322,6.6572574 5.78241544,6.61843388 5.76986642,6.6061463 C5.63496446,6.73268225 5.56751347,6.88183257 5.56751347,7.05359727 C5.56751347,7.21699597 5.62476838,7.3558195 5.73927818,7.47006786 L7.00163112,8.7383032 C7.11195792,8.84862995 7.25078145,8.90379336 7.41810171,8.90379336 C7.5815004,8.90379336 7.72032393,8.85072142 7.8345723,8.74457769 L8.73535659,7.85006786 C8.84986645,7.73555806 8.90712134,7.59869531 8.90712134,7.43947963 L8.90712134,7.43947963 Z M4.59967034,3.11947964 C4.59967034,2.95608094 4.54241543,2.81725741 4.42790563,2.70300905 L3.1655527,1.43477376 C3.05104289,1.32026395 2.91221936,1.26300905 2.74908211,1.26300905 C2.58986642,1.26300905 2.45104289,1.31817245 2.33261152,1.42849924 L1.43182721,2.32300905 C1.31731741,2.43751885 1.2600625,2.5743816 1.2600625,2.73359728 C1.2600625,2.89699597 1.31731741,3.0358195 1.43182721,3.15006787 L2.70633701,4.42457767 C2.81666381,4.53490447 2.95548734,4.59006787 3.12280759,4.59006787 C3.29431087,4.59006787 3.44136969,4.52679989 3.56398406,4.40026394 C3.55169648,4.38797636 3.51287296,4.35019859 3.44751348,4.28693062 C3.382154,4.22366264 3.33823243,4.17974107 3.31574878,4.1551659 C3.29326511,4.13059075 3.26267688,4.09176722 3.22398407,4.03869532 C3.18529125,3.98562342 3.15875531,3.93359728 3.14437623,3.88261689 C3.12999714,3.83163649 3.12280759,3.77542735 3.12280759,3.71398943 C3.12280759,3.55059074 3.1800625,3.41176722 3.2945723,3.29751885 C3.40908211,3.18327048 3.54790564,3.12601558 3.71104289,3.12575414 C3.77221936,3.12575414 3.82842851,3.13294369 3.87967034,3.14732277 C3.93091217,3.16170185 3.98293832,3.1882378 4.03574877,3.22693062 C4.08855923,3.26562343 4.12738276,3.29621166 4.15221936,3.31869532 C4.17705596,3.34117898 4.22097753,3.38510055 4.28398407,3.45046003 C4.3469906,3.51581951 4.38476838,3.55464303 4.3973174,3.56693061 C4.53221936,3.44039466 4.59967034,3.29124434 4.59967034,3.11947964 L4.59967034,3.11947964 Z M10.0835919,7.43947963 C10.0835919,7.92967571 9.90999716,8.34431623 9.56280761,8.68340122 L8.66202325,9.577911 C8.32293831,9.91699595 7.90829779,10.0865385 7.41810171,10.0865385 C6.92372263,10.0865385 6.50712132,9.91294368 6.16829779,9.56575413 L4.90594485,8.29751884 C4.56685988,7.95843388 4.3973174,7.54379335 4.3973174,7.05359727 C4.3973174,6.55111362 4.57705596,6.12418551 4.93653309,5.77281297 L4.3973174,5.23359728 C4.04594485,5.59307441 3.62110825,5.77281297 3.12280759,5.77281297 C2.63261152,5.77281297 2.21601021,5.60117898 1.87300368,5.25791101 L0.598493875,3.9834012 C0.255225901,3.64013323 0.0835919145,3.22353193 0.0835919145,2.73359728 C0.0835919145,2.24366264 0.257186685,1.82902212 0.604376228,1.48967571 L1.50516054,0.595165912 C1.84424551,0.256080945 2.25888603,0.0865384612 2.74908211,0.0865384612 C3.24346119,0.0865384612 3.6600625,0.260133233 3.99888603,0.607322774 L5.26123896,1.87555807 C5.60032394,2.21464303 5.76986642,2.62928356 5.76986642,3.11947964 C5.76986642,3.62196329 5.59012786,4.0488914 5.23065073,4.40026394 L5.76986642,4.93947963 C6.12123897,4.5800025 6.54607557,4.40026394 7.04437622,4.40026394 C7.5345723,4.40026394 7.95117361,4.57189793 8.29418014,4.9151659 L9.56868998,6.18967571 C9.91195795,6.53294368 10.0835919,6.94954498 10.0835919,7.43947963 L10.0835919,7.43947963 Z" id="link"></path>
                </g>
            </g>
        </g>
    </g>
</svg>