<?xml version="1.0" encoding="UTF-8"?>
<svg width="9px" height="9px" viewBox="0 0 9 9" version="1.1" xmlns="http://www.w3.org/2000/svg" xmlns:xlink="http://www.w3.org/1999/xlink">
    <!-- Generator: Sketch 41.2 (35397) - http://www.bohemiancoding.com/sketch -->
    <title>link</title>
    <desc>Created with Sketch.</desc>
    <defs></defs>
    <g id="Page-1" stroke="none" stroke-width="1" fill="none" fill-rule="evenodd">
        <g id="link" fill="#000000">
            <g id="Page-1">
                <g>
                    <path d="M7.87205348,6.57692308 C7.87205348,6.43269231 7.82151503,6.31015384 7.72043805,6.20930769 L6.59543807,5.08430769 C6.49436114,4.98323077 6.37182269,4.93269231 6.22782269,4.93269231 C6.07643807,4.93269231 5.94663038,4.99038461 5.83839961,5.10576923 C5.84924576,5.11661539 5.883515,5.14996153 5.9412073,5.20580769 C5.99889961,5.26165384 6.03766884,5.30042308 6.057515,5.32211539 C6.07736114,5.34380769 6.10436114,5.37807692 6.138515,5.42492308 C6.17266884,5.47176923 6.19609192,5.51769231 6.20878422,5.56269231 C6.22147653,5.60769231 6.22782269,5.65730769 6.22782269,5.71153846 C6.22782269,5.85576923 6.17728422,5.97830769 6.0762073,6.07915384 C5.97513038,6.18 5.85259192,6.23053846 5.70859192,6.23076923 C5.65459192,6.23076923 5.60497653,6.22442308 5.55974576,6.21173077 C5.514515,6.19903846 5.46859192,6.17561539 5.42197653,6.14146153 C5.37536114,6.10730769 5.34109192,6.08030769 5.31916884,6.06046153 C5.29724576,6.04061539 5.25847653,6.00184615 5.20286114,5.94415384 C5.14724576,5.88646153 5.11389961,5.85219231 5.10282269,5.84134615 C4.98374576,5.95303846 4.9242073,6.08469231 4.9242073,6.23630769 C4.9242073,6.38053846 4.97474576,6.50307692 5.07582269,6.60392308 L6.19009192,7.72338465 C6.28747653,7.82076922 6.410015,7.86946155 6.5577073,7.86946155 C6.70193807,7.86946155 6.82447653,7.82261535 6.92532269,7.7289231 L7.72043805,6.93934615 C7.82151503,6.83826923 7.87205348,6.71746153 7.87205348,6.57692308 L7.87205348,6.57692308 Z M4.06989961,2.76369231 C4.06989961,2.61946154 4.01936114,2.49692308 3.91828422,2.39607692 L2.804015,1.27661539 C2.70293807,1.17553846 2.58039961,1.125 2.43639961,1.125 C2.29586114,1.125 2.17332269,1.17369231 2.06878422,1.27107692 L1.27366884,2.06065385 C1.17259192,2.16173077 1.12205345,2.28253847 1.12205345,2.42307692 C1.12205345,2.56730769 1.17259192,2.68984615 1.27366884,2.79069231 L2.39866884,3.91569231 C2.49605345,4.01307692 2.61859192,4.06176923 2.76628422,4.06176923 C2.91766884,4.06176923 3.04747653,4.00592308 3.1557073,3.89423077 C3.14486114,3.88338461 3.11059192,3.85003846 3.05289961,3.79419231 C2.9952073,3.73834615 2.95643807,3.69957692 2.93659192,3.67788461 C2.91674576,3.65619231 2.88974576,3.62192308 2.85559192,3.57507692 C2.82143807,3.52823077 2.798015,3.48230769 2.78532269,3.43730769 C2.77263038,3.39230769 2.76628422,3.34269231 2.76628422,3.28846153 C2.76628422,3.14423077 2.81682269,3.02169231 2.91789961,2.92084615 C3.01897653,2.82 3.141515,2.76946153 3.285515,2.76923077 C3.339515,2.76923077 3.38913038,2.77557692 3.43436114,2.78826923 C3.47959192,2.80096153 3.525515,2.82438461 3.57213038,2.85853847 C3.61874576,2.89269231 3.653015,2.91969231 3.67493807,2.93953847 C3.69686114,2.95938461 3.73563038,2.99815384 3.79124576,3.05584615 C3.84686114,3.11353846 3.8802073,3.14780769 3.89128422,3.15865384 C4.01036114,3.04696154 4.06989961,2.91530769 4.06989961,2.76369231 L4.06989961,2.76369231 Z M8.91051503,6.57692308 C8.91051503,7.00961539 8.75728425,7.37561539 8.4508227,7.6749231 L7.65570728,8.4645 C7.35639961,8.76380767 6.99039961,8.91346155 6.5577073,8.91346155 C6.12132269,8.91346155 5.75359192,8.76023078 5.454515,8.45376923 L4.34024576,7.33430769 C4.04093807,7.035 3.89128422,6.669 3.89128422,6.23630769 C3.89128422,5.79276923 4.04993807,5.41592308 4.36724576,5.10576923 L3.89128422,4.62980769 C3.58113038,4.94711539 3.20613038,5.10576923 2.76628422,5.10576923 C2.33359192,5.10576923 1.96586114,4.95426923 1.66309192,4.65126923 L0.538091915,3.52626923 C0.235091915,3.22326923 0.0835919145,2.85553846 0.0835919145,2.42307692 C0.0835919145,1.99061539 0.236822684,1.62461539 0.543284222,1.32507692 L1.33839961,0.5355 C1.6377073,0.236192308 2.0037073,0.0865384612 2.43639961,0.0865384612 C2.87278422,0.0865384612 3.240515,0.239769231 3.53959192,0.546230769 L4.65386114,1.66569231 C4.95316884,1.965 5.10282269,2.331 5.10282269,2.76369231 C5.10282269,3.20723077 4.94416884,3.58407692 4.62686114,3.89423077 L5.10282269,4.37019231 C5.41297653,4.05288461 5.78797653,3.89423077 6.22782269,3.89423077 C6.660515,3.89423077 7.02824576,4.04573077 7.331015,4.34873077 L8.45601503,5.47373077 C8.75901503,5.77673077 8.91051503,6.14446153 8.91051503,6.57692308 L8.91051503,6.57692308 Z" id="link"></path>
                </g>
            </g>
        </g>
    </g>
</svg>