<?xml version="1.0" encoding="UTF-8"?>
<svg width="10px" height="9px" viewBox="0 0 10 9" version="1.1" xmlns="http://www.w3.org/2000/svg" xmlns:xlink="http://www.w3.org/1999/xlink">
    <!-- Generator: Sketch 41.2 (35397) - http://www.bohemiancoding.com/sketch -->
    <title>Combined Shape</title>
    <desc>Created with Sketch.</desc>
    <defs></defs>
    <g id="Page-1" stroke="none" stroke-width="1" fill="none" fill-rule="evenodd">
        <g id="ol" fill="#000000">
            <g id="Page-1">
                <g>
                    <path d="M9.6,1.51428571 L9.6,2.54285714 C9.6,2.58925714 9.58308568,2.62948571 9.54925712,2.66354286 C9.51542856,2.6976 9.4752,2.71451429 9.42857144,2.71428571 L2.91428571,2.71428571 C2.86788571,2.71428571 2.82765714,2.69737143 2.7936,2.66354286 C2.75954286,2.62971429 2.74262857,2.58948571 2.74285714,2.54285714 L2.74285714,1.51428571 C2.74285714,1.46788571 2.75977143,1.42765714 2.7936,1.3936 C2.82742857,1.35954286 2.86765714,1.34262857 2.91428571,1.34285714 L9.42857144,1.34285714 C9.47497144,1.34285714 9.5152,1.35977143 9.54925712,1.3936 C9.58331432,1.42742857 9.60022856,1.46765714 9.6,1.51428571 Z M9.6,4.25714286 L9.6,5.28571429 C9.6,5.33211429 9.58308568,5.37234286 9.54925712,5.4064 C9.51542856,5.44045714 9.4752,5.45737143 9.42857144,5.45714286 L2.91428571,5.45714286 C2.86788571,5.45714286 2.82765714,5.44022857 2.7936,5.4064 C2.75954286,5.37257143 2.74262857,5.33234286 2.74285714,5.28571429 L2.74285714,4.25714286 C2.74285714,4.21074286 2.75977143,4.17051429 2.7936,4.13645714 C2.82742857,4.1024 2.86765714,4.08548571 2.91428571,4.08571429 L9.42857144,4.08571429 C9.47497144,4.08571429 9.5152,4.10262857 9.54925712,4.13645714 C9.58331432,4.17028571 9.60022856,4.21051429 9.6,4.25714286 Z M9.6,7 L9.6,8.02857143 C9.6,8.07497143 9.58308568,8.1152 9.54925712,8.14925714 C9.51542856,8.18331429 9.4752,8.20022857 9.42857144,8.2 L2.91428571,8.2 C2.86788571,8.2 2.82765714,8.18308571 2.7936,8.14925714 C2.75954286,8.11542857 2.74262857,8.0752 2.74285714,8.02857143 L2.74285714,7 C2.74285714,6.9536 2.75977143,6.91337143 2.7936,6.87931429 C2.82742857,6.84525714 2.86765714,6.82834286 2.91428571,6.82857143 L9.42857144,6.82857143 C9.47497144,6.82857143 9.5152,6.84548571 9.54925712,6.87931429 C9.58331432,6.91314286 9.60022856,6.95337143 9.6,7 Z M1.6256355,7.50504428 C1.6256355,7.73500461 1.54726502,7.91612135 1.39052407,8.04839455 C1.23378311,8.18066775 1.03905271,8.24680435 0.806332865,8.24680435 C0.501681435,8.24680435 0.254428099,8.15196868 0.064572858,7.96229741 L0.310446433,7.58286288 C0.451366117,7.71219255 0.603691833,7.77685741 0.767423579,7.77685741 C0.850761199,7.77685741 0.923336679,7.75597701 0.985150012,7.71421621 C1.04696335,7.67245541 1.07787001,7.61137795 1.07787001,7.53098381 C1.07787001,7.34701555 0.926924059,7.26652948 0.625032151,7.28952548 L0.512995483,7.04806715 C0.535991515,7.01936811 0.582719452,6.9568189 0.653179292,6.86041953 C0.723639139,6.76402017 0.784716599,6.68638557 0.836411679,6.62751572 C0.888106759,6.56864588 0.941273585,6.51327143 0.995912159,6.46139239 L0.995912159,6.45697715 C0.949920092,6.45697715 0.880196125,6.45844889 0.786740245,6.46139239 C0.693284372,6.46433588 0.623560405,6.46580763 0.577568341,6.46580763 L0.577568341,6.6942962 L0.120591192,6.6942962 L0.120591192,6.03890929 L1.55637145,6.03890929 L1.55637145,6.41834381 L1.14685811,6.91423025 C1.29348081,6.94863231 1.40993272,7.01909215 1.49621383,7.12560977 C1.58249494,7.23212741 1.6256355,7.35860555 1.6256355,7.50504428 Z M1.65129907,4.56106264 L1.65129907,5.24652836 L0.090512382,5.24652836 C0.073219366,5.1431382 0.064572858,5.0655036 0.064572858,5.01362455 C0.064572858,4.86700185 0.0983310333,4.73334891 0.165847383,4.61266573 C0.233363733,4.49198256 0.314585719,4.39429541 0.409513339,4.3196043 C0.504440959,4.24491319 0.599276595,4.17666097 0.694020247,4.11484763 C0.7887639,4.0530343 0.869985887,3.99048509 0.9376862,3.92720001 C1.00538652,3.86391493 1.03914469,3.79925009 1.03896073,3.73320549 C1.03896073,3.6612739 1.01808033,3.60589945 0.976319533,3.56708215 C0.93455874,3.52826485 0.877804533,3.5088562 0.806056913,3.5088562 C0.67378374,3.5088562 0.557331833,3.59219382 0.456701197,3.75886906 L0.09023643,3.50444096 C0.159224526,3.35781826 0.261970797,3.24357397 0.398475243,3.1617081 C0.534979689,3.07984222 0.686569533,3.03890929 0.853244773,3.03890929 C1.06315255,3.03890929 1.23994605,3.098515 1.38362525,3.21772643 C1.52730447,3.33693786 1.59914407,3.49864596 1.59914407,3.70285072 C1.59914407,3.84652993 1.55030049,3.97806723 1.45261335,4.09746263 C1.35492621,4.21685803 1.24712081,4.30957803 1.12919716,4.37562264 C1.01127351,4.44166724 0.902732233,4.51424272 0.803573347,4.59334907 C0.704414453,4.67245542 0.653363263,4.74788241 0.650419771,4.81963003 L1.1979093,4.81963003 L1.1979093,4.56078669 L1.65074717,4.56078669 L1.65129907,4.56106264 Z M1.57320454,1.78072074 L1.57320454,2.20761908 L0.128869764,2.20761908 L0.128869764,1.78072074 L0.590262151,1.78072074 C0.590262151,1.66279709 0.590998024,1.48747534 0.592469771,1.25475549 C0.593941517,1.02203565 0.594677391,0.84809366 0.594677391,0.732929533 L0.594677391,0.68132644 L0.586122864,0.68132644 C0.563126833,0.730261993 0.491287229,0.8078966 0.370604053,0.914230253 L0.064572858,0.586398817 L0.650971677,0.0389092862 L1.10794882,0.0389092862 L1.10794882,1.78072074 L1.5734805,1.78072074 L1.57320454,1.78072074 Z" id="Combined-Shape"></path>
                </g>
            </g>
        </g>
    </g>
</svg>