<?xml version="1.0" encoding="UTF-8" standalone="no"?>
<svg width="12px" height="12px" viewBox="0 0 12 12" version="1.1" xmlns="http://www.w3.org/2000/svg" xmlns:xlink="http://www.w3.org/1999/xlink">
    <!-- Generator: Sketch 3.8.3 (29802) - http://www.bohemiancoding.com/sketch -->
    <title>ol</title>
    <desc>Created with Sketch.</desc>
    <defs></defs>
    <g id="Page-1" stroke="none" stroke-width="1" fill="none" fill-rule="evenodd">
        <path d="M2.46411682,10.4773601 C2.46411682,10.8223006 2.3465611,11.0939757 2.11144967,11.2923855 C1.87633824,11.4907953 1.58424264,11.5900002 1.23516287,11.5900002 C0.778185725,11.5900002 0.40730572,11.4477467 0.122522859,11.1632398 L0.491333221,10.594088 C0.702712747,10.7880825 0.931201322,10.8850798 1.17679894,10.8850798 C1.30180537,10.8850798 1.41066859,10.8537592 1.50338859,10.791118 C1.59610859,10.7284768 1.64246859,10.6368606 1.64246859,10.5162694 C1.64246859,10.240317 1.41604966,10.1195879 0.963211798,10.1540819 L0.795156796,9.79189441 C0.829650844,9.74884584 0.89974275,9.65502203 1.00543251,9.51042298 C1.11112228,9.36582393 1.20273847,9.24937203 1.28028109,9.16106726 C1.35782371,9.0727625 1.43757395,8.98970083 1.51953181,8.91188226 L1.51953181,8.9052594 C1.45054371,8.9052594 1.34595776,8.90746702 1.20577394,8.91188226 C1.06559013,8.9162975 0.961004179,8.91850512 0.892016083,8.91850512 L0.892016083,9.26123798 L0.20655036,9.26123798 L0.20655036,8.27815761 L2.36022075,8.27815761 L2.36022075,8.8473094 L1.74595074,9.59113905 C1.96588479,9.64274215 2.14056265,9.74843191 2.26998432,9.90820834 C2.39940598,10.0679848 2.46411682,10.257702 2.46411682,10.4773601 L2.46411682,10.4773601 Z M2.4769486,6.4225158 L2.4769486,7.45071438 L0.135768573,7.45071438 C0.109829049,7.29562914 0.096859287,7.17917724 0.096859287,7.10135866 C0.096859287,6.88142461 0.14749655,6.68094521 0.248771075,6.49992044 C0.3500456,6.31889568 0.471878578,6.17236496 0.614270008,6.06032829 C0.756661439,5.94829163 0.898914893,5.84591329 1.04103037,5.75319329 C1.18314585,5.66047329 1.30497883,5.56664948 1.4065293,5.47172186 C1.50807978,5.37679424 1.55871704,5.27979697 1.55844109,5.18073007 C1.55844109,5.07283269 1.5271205,4.98977102 1.4644793,4.93154506 C1.40183811,4.87331911 1.3167068,4.84420614 1.20908537,4.84420614 C1.01067561,4.84420614 0.835997749,4.96921257 0.685051795,5.21922543 L0.135354645,4.83758328 C0.238836789,4.61764923 0.392956196,4.4462828 0.597712865,4.32348399 C0.802469534,4.20068517 1.0298543,4.13928577 1.27986716,4.13928577 C1.59472883,4.13928577 1.85991907,4.22869434 2.07543788,4.40751149 C2.2909567,4.58632863 2.3987161,4.82889078 2.3987161,5.13519792 C2.3987161,5.35071674 2.32545074,5.54802269 2.17892003,5.72711579 C2.03238931,5.90620889 1.87068122,6.04528889 1.69379574,6.1443558 C1.51691026,6.2434227 1.35409835,6.35228592 1.20536002,6.47094544 C1.05662168,6.58960497 0.980044894,6.70274545 0.975629656,6.81036688 L1.79686395,6.81036688 L1.79686395,6.42210187 L2.47612075,6.42210187 L2.4769486,6.4225158 Z M11.5900002,8.48553583 L11.5900002,9.72732156 C11.5900002,9.78333989 11.5695797,9.83190751 11.5287387,9.87302442 C11.4878978,9.91414132 11.4393302,9.9345618 11.3830359,9.93428585 L3.5183929,9.93428585 C3.46237457,9.93428585 3.41380695,9.91386537 3.37269004,9.87302442 C3.33157314,9.83218346 3.31115266,9.78361584 3.31142862,9.72732156 L3.31142862,8.48553583 C3.31142862,8.42510225 3.33088326,8.3755688 3.36979254,8.33693547 C3.40870183,8.29830213 3.45823528,8.27884749 3.5183929,8.27857154 L11.3830359,8.27857154 C11.4390542,8.27857154 11.4876218,8.29899201 11.5287387,8.33983297 C11.5698556,8.38067392 11.5902761,8.42924154 11.5900002,8.48553583 L11.5900002,8.48553583 Z M2.48357146,2.67108111 L2.48357146,3.31142862 L0.31706929,3.31142862 L0.31706929,2.67108111 L1.00915787,2.67108111 C1.00915787,2.49419563 1.01026168,2.23121301 1.0124693,1.88213324 C1.01467692,1.53305347 1.01578073,1.27214049 1.01578073,1.0993943 L1.01578073,1.02198966 L1.00294894,1.02198966 C0.968454894,1.09539299 0.860695488,1.2118449 0.679670723,1.37134538 L0.220623931,0.879598226 L1.10022216,0.0583639293 L1.78568788,0.0583639293 L1.78568788,2.67108111 L2.48398539,2.67108111 L2.48357146,2.67108111 Z M11.5900002,5.17410721 L11.5900002,6.41589294 C11.5900002,6.47191128 11.5695797,6.5204789 11.5287387,6.5615958 C11.4878978,6.60271271 11.4393302,6.62313318 11.3830359,6.62285723 L3.5183929,6.62285723 C3.46237457,6.62285723 3.41380695,6.60243675 3.37269004,6.5615958 C3.33157314,6.52075485 3.31115266,6.47218723 3.31142862,6.41589294 L3.31142862,5.17410721 C3.31142862,5.11367364 3.33088326,5.06414019 3.36979254,5.02550685 C3.40870183,4.98687352 3.45823528,4.96741887 3.5183929,4.96714292 L11.3830359,4.96714292 C11.4390542,4.96714292 11.4876218,4.9875634 11.5287387,5.02840435 C11.5698556,5.0692453 11.5902761,5.11781292 11.5900002,5.17410721 L11.5900002,5.17410721 Z M11.5900002,1.8626786 L11.5900002,3.10446433 C11.5900002,3.16048266 11.5695797,3.20905028 11.5287387,3.25016719 C11.4878978,3.29128409 11.4393302,3.31170457 11.3830359,3.31142862 L3.5183929,3.31142862 C3.46237457,3.31142862 3.41380695,3.29100814 3.37269004,3.25016719 C3.33157314,3.20932623 3.31115266,3.16075861 3.31142862,3.10446433 L3.31142862,1.8626786 C3.31142862,1.80666026 3.33184909,1.75809264 3.37269004,1.71697574 C3.413531,1.67585883 3.46209862,1.65543836 3.5183929,1.65571431 L11.3830359,1.65571431 C11.4390542,1.65571431 11.4876218,1.67613478 11.5287387,1.71697574 C11.5698556,1.75781669 11.5902761,1.80638431 11.5900002,1.8626786 L11.5900002,1.8626786 Z" id="ol" fill="#000000"></path>
    </g>
</svg>