<?xml version="1.0" encoding="UTF-8"?>
<svg width="13px" height="10px" viewBox="0 0 13 10" version="1.1" xmlns="http://www.w3.org/2000/svg" xmlns:xlink="http://www.w3.org/1999/xlink">
    <!-- Generator: Sketch 41.2 (35397) - http://www.bohemiancoding.com/sketch -->
    <title>Combined Shape</title>
    <desc>Created with Sketch.</desc>
    <defs></defs>
    <g id="Page-1" stroke="none" stroke-width="1" fill="none" fill-rule="evenodd">
        <g id="ol" fill="#000000">
            <g id="Page-1">
                <g>
                    <path d="M12.3749974,6.40625281 L12.3749974,8.09374719 C12.3749974,8.16987194 12.3555723,8.23587171 12.3167224,8.29174653 C12.2778724,8.34762134 12.2316725,8.37537126 12.1781225,8.37499625 L4.69687749,8.37499625 C4.64359003,8.37499625 4.59739006,8.34724634 4.55827758,8.29174653 C4.51916511,8.23624672 4.49974012,8.17024693 4.50000263,8.09374719 L4.50000263,6.40625281 C4.50000263,6.33012806 4.51942761,6.26412829 4.55827758,6.20825347 C4.59712756,6.15237866 4.64332753,6.12462874 4.69687749,6.12500375 L12.1781225,6.12500375 C12.23141,6.12500375 12.2776099,6.15275365 12.3167224,6.20825347 C12.3558349,6.26375328 12.3752599,6.32975307 12.3749974,6.40625281 Z M12.4476418,3.07502014 C12.4476418,3.15114489 12.4282168,3.21714466 12.3893669,3.27301948 C12.3505169,3.32889429 12.3043169,3.3566442 12.250767,3.3562692 L4.76952196,3.3562692 C4.71623449,3.3562692 4.67003453,3.32851929 4.63092205,3.27301948 C4.59180957,3.21751967 4.57238459,3.15151988 4.57264709,3.07502014 L4.57264709,1.38752575 C4.57264709,1.31140101 4.59207208,1.24540123 4.63092205,1.18952642 C4.66977202,1.1336516 4.71597199,1.10590169 4.76952196,1.1062767 L12.250767,1.1062767 C12.3040544,1.1062767 12.3502544,1.1340266 12.3893669,1.18952642 C12.4284794,1.24502623 12.4479043,1.31102602 12.4476418,1.38752575 L12.4476418,3.07502014 Z M2.8125,8.27740625 L2.8125,9.5 L0.0459782607,9.5 C0.0153260869,9.31559375 0,9.17712501 0,9.08459375 C0,8.82307812 0.0598369571,8.58469532 0.17951087,8.36944531 C0.299184783,8.15419532 0.443152175,7.97996094 0.611413044,7.84674218 C0.779673915,7.71352344 0.947771741,7.59178906 1.11570652,7.48153906 C1.28364131,7.37128907 1.4276087,7.25972657 1.54760869,7.14685157 C1.6676087,7.03397657 1.72744565,6.91864062 1.72711957,6.80084375 C1.72711957,6.67254688 1.6901087,6.57378125 1.61608695,6.50454687 C1.54206522,6.4353125 1.44146739,6.40069532 1.31429348,6.40069532 C1.07983696,6.40069532 0.873423914,6.54933594 0.695054349,6.84661719 L0.0454891309,6.39282031 C0.16777174,6.13130469 0.349891305,5.92753907 0.591847827,5.78152344 C0.833804349,5.63550781 1.1025,5.5625 1.39793479,5.5625 C1.77,5.5625 2.08336957,5.6688125 2.33804348,5.8814375 C2.5927174,6.0940625 2.72005435,6.38248438 2.72005435,6.74670312 C2.72005435,7.00296875 2.63347826,7.23757812 2.46032609,7.45053125 C2.28717391,7.66348438 2.09608697,7.82885938 1.88706522,7.94665626 C1.67804348,8.06445313 1.48565218,8.19389844 1.30989131,8.33499219 C1.13413044,8.47608594 1.04364131,8.6106172 1.03842392,8.73858595 L2.0088587,8.73858595 L2.0088587,8.27691406 L2.81152175,8.27691406 L2.8125,8.27740625 Z M2.81198564,3.66242524 L2.81198564,4.4375 L0.119845008,4.4375 L0.119845008,3.66242524 L0.979848665,3.66242524 C0.979848665,3.44832358 0.981220282,3.13001018 0.983963517,2.70748505 C0.986706751,2.28495991 0.988078368,1.9691516 0.988078368,1.76006012 L0.988078368,1.66636977 L0.972133319,1.66636977 C0.929270301,1.75521695 0.795366223,1.89617 0.570421086,2.08922891 L0,1.49401959 L1.09300704,0.5 L1.944781,0.5 L1.944781,3.66242524 L2.8125,3.66242524 L2.81198564,3.66242524 Z" id="Combined-Shape"></path>
                </g>
            </g>
        </g>
    </g>
</svg>