<?xml version="1.0" encoding="UTF-8"?>
<svg width="13px" height="9px" viewBox="0 0 13 9" version="1.1" xmlns="http://www.w3.org/2000/svg" xmlns:xlink="http://www.w3.org/1999/xlink">
    <!-- Generator: Sketch 41.2 (35397) - http://www.bohemiancoding.com/sketch -->
    <title>Combined Shape</title>
    <desc>Created with Sketch.</desc>
    <defs></defs>
    <g id="Page-1" stroke="none" stroke-width="1" fill="none" fill-rule="evenodd">
        <g id="ol-copy" fill="#000000">
            <g id="ol">
                <g id="Page-1">
                    <path d="M1.5,8.5 C2.32842712,8.5 3,7.82842712 3,7 C3,6.17157288 2.32842712,5.5 1.5,5.5 C0.671572875,5.5 0,6.17157288 0,7 C0,7.82842712 0.671572875,8.5 1.5,8.5 Z M1.5,3.5 C2.32842712,3.5 3,2.82842712 3,2 C3,1.17157288 2.32842712,0.5 1.5,0.5 C0.671572875,0.5 0,1.17157288 0,2 C0,2.82842712 0.671572875,3.5 1.5,3.5 Z M12.3749974,6.40625281 L12.3749974,8.09374719 C12.3749974,8.16987194 12.3555723,8.23587171 12.3167224,8.29174653 C12.2778724,8.34762134 12.2316725,8.37537126 12.1781225,8.37499625 L4.69687749,8.37499625 C4.64359003,8.37499625 4.59739006,8.34724634 4.55827758,8.29174653 C4.51916511,8.23624672 4.49974012,8.17024693 4.50000263,8.09374719 L4.50000263,6.40625281 C4.50000263,6.33012806 4.51942761,6.26412829 4.55827758,6.20825347 C4.59712756,6.15237866 4.64332753,6.12462874 4.69687749,6.12500375 L12.1781225,6.12500375 C12.23141,6.12500375 12.2776099,6.15275365 12.3167224,6.20825347 C12.3558349,6.26375328 12.3752599,6.32975307 12.3749974,6.40625281 Z M12.4476418,3.07502014 C12.4476418,3.15114489 12.4282168,3.21714466 12.3893669,3.27301948 C12.3505169,3.32889429 12.3043169,3.3566442 12.250767,3.3562692 L4.76952196,3.3562692 C4.71623449,3.3562692 4.67003453,3.32851929 4.63092205,3.27301948 C4.59180957,3.21751967 4.57238459,3.15151988 4.57264709,3.07502014 L4.57264709,1.38752575 C4.57264709,1.31140101 4.59207208,1.24540123 4.63092205,1.18952642 C4.66977202,1.1336516 4.71597199,1.10590169 4.76952196,1.1062767 L12.250767,1.1062767 C12.3040544,1.1062767 12.3502544,1.1340266 12.3893669,1.18952642 C12.4284794,1.24502623 12.4479043,1.31102602 12.4476418,1.38752575 L12.4476418,3.07502014 Z" id="Combined-Shape"></path>
                </g>
            </g>
        </g>
    </g>
</svg>