<?xml version="1.0" encoding="UTF-8"?>
<svg width="10px" height="8px" viewBox="0 0 10 8" version="1.1" xmlns="http://www.w3.org/2000/svg" xmlns:xlink="http://www.w3.org/1999/xlink">
    <!-- Generator: Sketch 41.2 (35397) - http://www.bohemiancoding.com/sketch -->
    <title>ul</title>
    <desc>Created with Sketch.</desc>
    <defs></defs>
    <g id="Page-1" stroke="none" stroke-width="1" fill="none" fill-rule="evenodd">
        <g id="ul" fill="#000000">
            <g id="Page-1">
                <g>
                    <path d="M2.05714286,6.51428571 C2.05714286,6.8 1.95714286,7.04285714 1.75714286,7.24285714 C1.55714286,7.44285714 1.31428571,7.54285714 1.02857143,7.54285714 C0.742857143,7.54285714 0.5,7.44285714 0.3,7.24285714 C0.1,7.04285714 0,6.8 0,6.51428571 C0,6.22857143 0.1,5.98571429 0.3,5.78571429 C0.5,5.58571429 0.742857143,5.48571429 1.02857143,5.48571429 C1.31428571,5.48571429 1.55714286,5.58571429 1.75714286,5.78571429 C1.95714286,5.98571429 2.05714286,6.22857143 2.05714286,6.51428571 L2.05714286,6.51428571 Z M2.05714286,3.77142857 C2.05714286,4.05714286 1.95714286,4.3 1.75714286,4.5 C1.55714286,4.7 1.31428571,4.8 1.02857143,4.8 C0.742857143,4.8 0.5,4.7 0.3,4.5 C0.1,4.3 0,4.05714286 0,3.77142857 C0,3.48571429 0.1,3.24285714 0.3,3.04285714 C0.5,2.84285714 0.742857143,2.74285714 1.02857143,2.74285714 C1.31428571,2.74285714 1.55714286,2.84285714 1.75714286,3.04285714 C1.95714286,3.24285714 2.05714286,3.48571429 2.05714286,3.77142857 L2.05714286,3.77142857 Z M9.6,6 L9.6,7.02857143 C9.6,7.07497143 9.58308568,7.1152 9.54925712,7.14925714 C9.51542856,7.18331429 9.4752,7.20022857 9.42857144,7.2 L2.91428571,7.2 C2.86788571,7.2 2.82765714,7.18308571 2.7936,7.14925714 C2.75954286,7.11542857 2.74262857,7.0752 2.74285714,7.02857143 L2.74285714,6 C2.74285714,5.9536 2.75977143,5.91337143 2.7936,5.87931429 C2.82742857,5.84525714 2.86765714,5.82834286 2.91428571,5.82857143 L9.42857144,5.82857143 C9.47497144,5.82857143 9.5152,5.84548571 9.54925712,5.87931429 C9.58331432,5.91314286 9.60022856,5.95337143 9.6,6 L9.6,6 Z M2.05714286,1.02857143 C2.05714286,1.31428571 1.95714286,1.55714286 1.75714286,1.75714286 C1.55714286,1.95714286 1.31428571,2.05714286 1.02857143,2.05714286 C0.742857143,2.05714286 0.5,1.95714286 0.3,1.75714286 C0.1,1.55714286 0,1.31428571 0,1.02857143 C0,0.742857143 0.1,0.5 0.3,0.3 C0.5,0.1 0.742857143,0 1.02857143,0 C1.31428571,0 1.55714286,0.1 1.75714286,0.3 C1.95714286,0.5 2.05714286,0.742857143 2.05714286,1.02857143 L2.05714286,1.02857143 Z M9.6,3.25714286 L9.6,4.28571429 C9.6,4.33211429 9.58308568,4.37234286 9.54925712,4.4064 C9.51542856,4.44045714 9.4752,4.45737143 9.42857144,4.45714286 L2.91428571,4.45714286 C2.86788571,4.45714286 2.82765714,4.44022857 2.7936,4.4064 C2.75954286,4.37257143 2.74262857,4.33234286 2.74285714,4.28571429 L2.74285714,3.25714286 C2.74285714,3.21074286 2.75977143,3.17051429 2.7936,3.13645714 C2.82742857,3.1024 2.86765714,3.08548571 2.91428571,3.08571429 L9.42857144,3.08571429 C9.47497144,3.08571429 9.5152,3.10262857 9.54925712,3.13645714 C9.58331432,3.17028571 9.60022856,3.21051429 9.6,3.25714286 L9.6,3.25714286 Z M9.6,0.514285714 L9.6,1.54285714 C9.6,1.58925714 9.58308568,1.62948571 9.54925712,1.66354286 C9.51542856,1.6976 9.4752,1.71451429 9.42857144,1.71428571 L2.91428571,1.71428571 C2.86788571,1.71428571 2.82765714,1.69737143 2.7936,1.66354286 C2.75954286,1.62971429 2.74262857,1.58948571 2.74285714,1.54285714 L2.74285714,0.514285714 C2.74285714,0.467885714 2.75977143,0.427657143 2.7936,0.3936 C2.82742857,0.359542857 2.86765714,0.342628571 2.91428571,0.342857143 L9.42857144,0.342857143 C9.47497144,0.342857143 9.5152,0.359771429 9.54925712,0.3936 C9.58331432,0.427428571 9.60022856,0.467657143 9.6,0.514285714 L9.6,0.514285714 Z" id="ul"></path>
                </g>
            </g>
        </g>
    </g>
</svg>