<?xml version="1.0" encoding="UTF-8"?>
<svg width="10px" height="9px" viewBox="0 0 10 9" version="1.1" xmlns="http://www.w3.org/2000/svg" xmlns:xlink="http://www.w3.org/1999/xlink">
    <!-- Generator: Sketch 41.2 (35397) - http://www.bohemiancoding.com/sketch -->
    <title>unlink</title>
    <desc>Created with Sketch.</desc>
    <defs></defs>
    <g id="Page-1" stroke="none" stroke-width="1" fill="none" fill-rule="evenodd">
        <g id="unlink" fill="#000000">
            <g id="Page-1">
                <g>
                    <path d="M3.12132268,6.87426923 L1.7367073,8.25888465 C1.7007073,8.2914231 1.65928422,8.30769232 1.61243806,8.30769232 C1.56928422,8.30769232 1.52786114,8.2914231 1.48816884,8.25888465 C1.45563038,8.22288465 1.43936115,8.18146155 1.43936115,8.13461535 C1.43936115,8.08776922 1.45563038,8.04634612 1.48816884,8.01034612 L2.87278422,6.62573077 C2.90878422,6.59319231 2.9502073,6.57692308 2.99705345,6.57692308 C3.04389961,6.57692308 3.08532268,6.59319231 3.12132268,6.62573077 C3.15386114,6.66173077 3.17013037,6.70315384 3.17013037,6.75 C3.17013037,6.79684615 3.15386114,6.83826923 3.12132268,6.87426923 L3.12132268,6.87426923 Z M4.03551499,7.09615384 L4.03551499,8.8269231 C4.03551499,8.87746155 4.01924576,8.91888465 3.9867073,8.95119232 C3.95416884,8.9835 3.91274576,8.99976922 3.86243806,9 C3.81213037,9.00023077 3.7707073,8.98396155 3.73816884,8.95119232 C3.70563037,8.9184231 3.68936114,8.877 3.68936114,8.8269231 L3.68936114,7.09615384 C3.68936114,7.04561539 3.70563037,7.00419231 3.73816884,6.97188461 C3.7707073,6.93957692 3.81213037,6.92330769 3.86243806,6.92307692 C3.91274576,6.92284615 3.95416884,6.93911539 3.9867073,6.97188461 C4.01924576,7.00465384 4.03551499,7.04607692 4.03551499,7.09615384 L4.03551499,7.09615384 Z M2.82397653,5.88461539 C2.82397653,5.93515384 2.8077073,5.97657692 2.77516884,6.00888461 C2.74263037,6.04119231 2.7012073,6.05746153 2.65089961,6.05769231 L0.920130376,6.05769231 C0.869591914,6.05769231 0.828168838,6.04142308 0.795861145,6.00888461 C0.763553453,5.97634615 0.747284222,5.93492308 0.747053453,5.88461539 C0.746822684,5.83430769 0.763091914,5.79288461 0.795861145,5.76034615 C0.828630376,5.72780769 0.870053453,5.71153846 0.920130376,5.71153846 L2.65089961,5.71153846 C2.70143806,5.71153846 2.74286114,5.72780769 2.77516884,5.76034615 C2.80747653,5.79288461 2.82374576,5.83430769 2.82397653,5.88461539 L2.82397653,5.88461539 Z M9.66051502,6.57692308 C9.66051502,7.00961539 9.50728425,7.37561539 9.2008227,7.6749231 L8.40570727,8.4645 C8.10639961,8.76380768 7.74039961,8.91346155 7.3077073,8.91346155 C6.87132268,8.91346155 6.50359192,8.76023078 6.20451499,8.45376923 L4.39793806,6.642 C4.32224576,6.56630769 4.24655345,6.46534616 4.17086114,6.33911539 L5.46339961,6.24184616 L6.94009192,7.72373077 C7.03747653,7.82111535 7.16001499,7.87073078 7.3077073,7.8725769 C7.45539961,7.8744231 7.57793806,7.82665387 7.67532268,7.72926923 L8.47043805,6.93969231 C8.57151502,6.83861539 8.62205347,6.71780769 8.62205347,6.57726923 C8.62205347,6.43303846 8.57151502,6.3105 8.47043805,6.20965384 L6.98855345,4.72223077 L7.08582268,3.42969231 C7.21205345,3.50538461 7.31301499,3.58107692 7.3887073,3.65676923 L9.20601502,5.47407692 C9.50901502,5.78423077 9.66051502,6.15196153 9.66051502,6.57726923 L9.66051502,6.57692308 Z M6.32324576,2.66123077 L5.0307073,2.7585 L3.55401499,1.27661539 C3.45293806,1.17553846 3.33039961,1.125 3.18639961,1.125 C3.04586114,1.125 2.92332268,1.17369231 2.81878422,1.27107692 L2.02366884,2.06065384 C1.92259192,2.16173077 1.87205345,2.28253847 1.87205345,2.42307692 C1.87205345,2.56730769 1.92259192,2.68984616 2.02366884,2.79069231 L3.50555345,4.27257692 L3.40828422,5.57065385 C3.28205345,5.49496153 3.18109192,5.41926923 3.10539961,5.34357692 L1.28809191,3.52626923 C0.985091914,3.21611539 0.833591914,2.84838461 0.833591914,2.42307692 C0.833591914,1.99038461 0.986822683,1.62438461 1.29328422,1.32507692 L2.08839961,0.5355 C2.3877073,0.236192308 2.7537073,0.0865384612 3.18639961,0.0865384612 C3.62278422,0.0865384612 3.99051499,0.239769231 4.28959192,0.546230769 L6.09616884,2.358 C6.17186114,2.43369231 6.24755345,2.53465384 6.32324576,2.66088461 L6.32324576,2.66123077 Z M9.74705347,3.11538461 C9.74705347,3.16592308 9.73078425,3.20734615 9.69824572,3.23965385 C9.66570727,3.27196154 9.62428425,3.28823077 9.5739765,3.28846153 L7.8432073,3.28846153 C7.79266884,3.28846153 7.75124576,3.27219231 7.71893806,3.23965385 C7.68663037,3.20711539 7.67036114,3.16569231 7.67013037,3.11538461 C7.66989961,3.06507692 7.68616884,3.02365385 7.71893806,2.99111539 C7.7517073,2.95857692 7.79313037,2.94230769 7.8432073,2.94230769 L9.5739765,2.94230769 C9.62451502,2.94230769 9.66593805,2.95857692 9.69824572,2.99111539 C9.73055347,3.02365385 9.7468227,3.06507692 9.74705347,3.11538461 L9.74705347,3.11538461 Z M6.80474576,0.173076923 L6.80474576,1.90384615 C6.80474576,1.95438461 6.78847653,1.99580769 6.75593806,2.02811539 C6.72339961,2.06042308 6.68197653,2.07669231 6.63166884,2.07692308 C6.58136114,2.07715384 6.53993806,2.06088461 6.50739961,2.02811539 C6.47486114,1.99534615 6.45859192,1.95392308 6.45859192,1.90384615 L6.45859192,0.173076923 C6.45859192,0.122538461 6.47486114,0.0811153845 6.50739961,0.0488076923 C6.53993806,0.0165 6.58136114,0.000230769231 6.63166884,-1.10083748e-15 C6.68197653,-0.000230769231 6.72339961,0.0160384615 6.75593806,0.0488076923 C6.78847653,0.0815769232 6.80474576,0.123 6.80474576,0.173076923 L6.80474576,0.173076923 Z M9.00593805,0.989653845 L7.62132268,2.37426923 C7.58163037,2.40680769 7.5402073,2.42307692 7.49705345,2.42307692 C7.45389961,2.42307692 7.41247653,2.40680769 7.37278422,2.37426923 C7.34024576,2.33826923 7.32397653,2.29684615 7.32397653,2.25 C7.32397653,2.20315384 7.34024576,2.16173077 7.37278422,2.12573077 L8.7573996,0.741115384 C8.7933996,0.708576923 8.8348227,0.692307692 8.88166882,0.692307692 C8.92851502,0.692307692 8.96993805,0.708576923 9.00593805,0.741115384 C9.0384765,0.777115387 9.05474572,0.818538465 9.05474572,0.865384612 C9.05474572,0.912230767 9.0384765,0.953653845 9.00593805,0.989653845 L9.00593805,0.989653845 Z" id="unlink"></path>
                </g>
            </g>
        </g>
    </g>
</svg>