<?xml version="1.0" encoding="UTF-8"?>
<svg width="11px" height="10px" viewBox="0 0 11 10" version="1.1" xmlns="http://www.w3.org/2000/svg" xmlns:xlink="http://www.w3.org/1999/xlink">
    <!-- Generator: Sketch 41.2 (35397) - http://www.bohemiancoding.com/sketch -->
    <title>unlink</title>
    <desc>Created with Sketch.</desc>
    <defs></defs>
    <g id="Page-1" stroke="none" stroke-width="1" fill="none" fill-rule="evenodd">
        <g id="unlink" fill="#000000">
            <g id="Page-1">
                <g>
                    <path d="M3.38512923,7.63807309 L1.84666851,9.17653383 C1.80666853,9.21268765 1.76064292,9.23076455 1.70859166,9.23076455 C1.66064297,9.23076455 1.61461735,9.21268765 1.57051482,9.17653383 C1.53436099,9.13653385 1.51628408,9.09050821 1.51628408,9.03845691 C1.51628408,8.98640568 1.53436099,8.94038004 1.57051482,8.90038006 L3.10897553,7.36191938 C3.1489755,7.32576556 3.19500112,7.30768865 3.24705238,7.30768865 C3.29910363,7.30768865 3.34512925,7.32576556 3.38512923,7.36191938 C3.42128305,7.40191936 3.43935996,7.44794498 3.43935996,7.49999623 C3.43935996,7.55204749 3.42128305,7.59807311 3.38512923,7.63807309 L3.38512923,7.63807309 Z M4.40089791,7.88461141 L4.40089791,9.80768733 C4.40089791,9.86384113 4.382821,9.90986677 4.34666717,9.94576417 C4.31051335,9.98166157 4.26448773,9.99973847 4.20859032,9.99999489 C4.15269291,10.0002513 4.1066673,9.9821744 4.07051348,9.94576417 C4.03435964,9.90935394 4.01628273,9.8633283 4.01628273,9.80768733 L4.01628273,7.88461141 C4.01628273,7.8284576 4.03435964,7.78243198 4.07051348,7.74653456 C4.1066673,7.71063715 4.15269291,7.69256023 4.20859032,7.69230382 C4.26448773,7.69204741 4.31051335,7.71012433 4.34666717,7.74653456 C4.382821,7.7829448 4.40089791,7.82897042 4.40089791,7.88461141 L4.40089791,7.88461141 Z M3.05474479,6.53845829 C3.05474479,6.5946121 3.03666787,6.64063772 3.00051405,6.67653514 C2.96436022,6.71243256 2.9183346,6.73050947 2.8624372,6.73076588 L0.93936131,6.73076588 C0.883207495,6.73076588 0.837181879,6.71268897 0.801284462,6.67653514 C0.765387045,6.64038131 0.747310132,6.5943557 0.747053722,6.53845829 C0.746797312,6.48256088 0.764874225,6.43653526 0.801284462,6.40038144 C0.837694698,6.36422761 0.883720315,6.34615071 0.93936131,6.34615071 L2.8624372,6.34615071 C2.91859101,6.34615071 2.96461663,6.36422761 3.00051405,6.40038144 C3.03641146,6.43653526 3.05448838,6.48256088 3.05474479,6.53845829 L3.05474479,6.53845829 Z M10.6508946,7.30768865 C10.6508946,7.78845762 10.4806383,8.19512407 10.1401256,8.52768801 L9.2566645,9.40499521 C8.92410061,9.73755911 8.51743416,9.90384111 8.03666518,9.90384111 C7.55179365,9.90384111 7.14320413,9.73358478 6.81089662,9.39307213 L4.80359,7.3799963 C4.71948748,7.29589378 4.63538496,7.18371435 4.55128244,7.04345802 L5.98743552,6.93538115 L7.62820387,8.58191874 C7.73640894,8.69012376 7.87256271,8.74525198 8.03666518,8.74730323 C8.20076766,8.74935456 8.33692143,8.69627767 8.44512651,8.58807257 L9.32858755,7.71076535 C9.44089524,7.59845772 9.49704904,7.46422702 9.49704904,7.30807326 C9.49704904,7.14781694 9.44089524,7.01166316 9.32858755,6.89961194 L7.68204999,5.24692052 L7.79012686,3.81076745 C7.93038319,3.89486997 8.04256262,3.97897249 8.12666513,4.06307501 L10.1458949,6.08230469 C10.4825613,6.42691989 10.6508946,6.83550941 10.6508946,7.30807326 L10.6508946,7.30768865 Z M6.94281962,2.95692175 L5.50666654,3.06499862 L3.8658982,1.41846105 C3.75359056,1.30615342 3.61743679,1.2499996 3.45743688,1.2499996 C3.30128311,1.2499996 3.16512935,1.30410213 3.04897556,1.4123072 L2.1655145,2.28961442 C2.05320687,2.40192205 1.99705305,2.53615275 1.99705305,2.69230651 C1.99705305,2.85256283 2.05320687,2.98871661 2.1655145,3.10076783 L3.81205207,4.74730541 L3.70397521,6.18961232 C3.56371887,6.1055098 3.45153945,6.02140729 3.36743693,5.93730477 L1.34820724,3.91807509 C1.01154076,3.57345989 0.843207516,3.16487036 0.843207516,2.69230651 C0.843207516,2.21153754 1.01346383,1.80487109 1.35397647,1.47230717 L2.23743754,0.594999949 C2.57000146,0.262436025 2.97666791,0.0961540631 3.45743688,0.0961540631 C3.94230841,0.0961540631 4.35089794,0.266410382 4.68320545,0.606923019 L6.69051207,2.61999886 C6.77461458,2.70410138 6.8587171,2.8162808 6.94281962,2.95653714 L6.94281962,2.95692175 Z M10.7470484,3.46153687 C10.7470484,3.51769068 10.7289715,3.5637163 10.6928176,3.59961372 C10.6566637,3.63551113 10.6106382,3.65358805 10.5547407,3.65384445 L8.63166486,3.65384445 C8.57551105,3.65384445 8.52948543,3.63576755 8.49358801,3.59961372 C8.4576906,3.56345989 8.43961368,3.51743428 8.43935728,3.46153687 C8.43910087,3.40563946 8.45717778,3.35961385 8.49358801,3.32346002 C8.52999825,3.28730619 8.57602387,3.26922928 8.63166486,3.26922928 L10.5547407,3.26922928 C10.6108946,3.26922928 10.6569202,3.28730619 10.6928176,3.32346002 C10.728715,3.35961385 10.746792,3.40563946 10.7470484,3.46153687 L10.7470484,3.46153687 Z M7.47781933,0.192307858 L7.47781933,2.11538375 C7.47781933,2.17153756 7.45974242,2.21756318 7.42358859,2.2534606 C7.38743477,2.28935801 7.34140915,2.30743493 7.28551175,2.30769134 C7.22961433,2.30794774 7.18358872,2.28987083 7.1474349,2.2534606 C7.11128106,2.21705036 7.09320416,2.17102474 7.09320416,2.11538375 L7.09320416,0.192307858 C7.09320416,0.136154042 7.11128106,0.0901284255 7.1474349,0.054231009 C7.18358872,0.0183335924 7.22961433,0.000256679079 7.28551175,2.6896036e-07 C7.34140915,-0.000256141158 7.38743477,0.0178207722 7.42358859,0.054231009 C7.45974242,0.090641246 7.47781933,0.136666862 7.47781933,0.192307858 L7.47781933,0.192307858 Z M9.92358723,1.09961506 L8.38512654,2.63807577 C8.34102399,2.6742296 8.29499838,2.69230651 8.24704969,2.69230651 C8.199101,2.69230651 8.15307538,2.6742296 8.10897284,2.63807577 C8.07281901,2.5980758 8.0547421,2.55205018 8.0547421,2.49999892 C8.0547421,2.44794767 8.07281901,2.40192205 8.10897284,2.36192207 L9.64743354,0.823461364 C9.68743352,0.787307538 9.73345916,0.769230624 9.78551038,0.769230624 C9.83756169,0.769230624 9.88358725,0.787307538 9.92358723,0.823461364 C9.95974104,0.863461346 9.97781795,0.909486963 9.97781795,0.96153821 C9.97781795,1.01358947 9.95974104,1.05961508 9.92358723,1.09961506 L9.92358723,1.09961506 Z" id="unlink"></path>
                </g>
            </g>
        </g>
    </g>
</svg>