<?xml version="1.0" encoding="UTF-8"?>
<svg width="9px" height="8px" viewBox="0 0 9 8" version="1.1" xmlns="http://www.w3.org/2000/svg" xmlns:xlink="http://www.w3.org/1999/xlink">
    <!-- Generator: Sketch 41.2 (35397) - http://www.bohemiancoding.com/sketch -->
    <title>unlink</title>
    <desc>Created with Sketch.</desc>
    <defs></defs>
    <g id="Page-1" stroke="none" stroke-width="1" fill="none" fill-rule="evenodd">
        <g id="unlink" fill="#000000">
            <g id="Page-1">
                <g>
                    <path d="M2.77450905,6.11046154 L1.54373982,7.3412308 C1.51173982,7.37015387 1.47491931,7.3846154 1.43327828,7.3846154 C1.39491931,7.3846154 1.35809879,7.37015387 1.32281674,7.3412308 C1.29389367,7.3092308 1.27943213,7.27241027 1.27943213,7.2307692 C1.27943213,7.1891282 1.29389367,7.15230767 1.32281674,7.12030767 L2.55358597,5.88953846 C2.58558597,5.86061539 2.62240649,5.84615385 2.66404751,5.84615385 C2.70568854,5.84615385 2.74250905,5.86061539 2.77450905,5.88953846 C2.80343213,5.92153846 2.81789367,5.95835897 2.81789367,6 C2.81789367,6.04164103 2.80343213,6.07846154 2.77450905,6.11046154 L2.77450905,6.11046154 Z M3.58712444,6.30769231 L3.58712444,7.84615387 C3.58712444,7.89107693 3.5726629,7.92789747 3.54373982,7.9566154 C3.51481675,7.98533333 3.47799623,7.99979487 3.43327828,8 C3.38856033,8.00020513 3.35173982,7.9857436 3.32281675,7.9566154 C3.29389367,7.9274872 3.27943213,7.89066667 3.27943213,7.84615387 L3.27943213,6.30769231 C3.27943213,6.26276923 3.29389367,6.22594872 3.32281675,6.19723077 C3.35173982,6.16851282 3.38856033,6.15405128 3.43327828,6.15384615 C3.47799623,6.15364103 3.51481675,6.16810257 3.54373982,6.19723077 C3.5726629,6.22635897 3.58712444,6.26317949 3.58712444,6.30769231 L3.58712444,6.30769231 Z M2.51020136,5.23076923 C2.51020136,5.27569231 2.49573982,5.31251282 2.46681675,5.34123077 C2.43789367,5.36994872 2.40107315,5.38441025 2.35635521,5.38461539 L0.817893667,5.38461539 C0.772970591,5.38461539 0.736150078,5.37015385 0.707432129,5.34123077 C0.67871418,5.31230769 0.664252642,5.27548718 0.664047514,5.23076923 C0.663842385,5.18605128 0.678303924,5.14923077 0.707432129,5.12030769 C0.736560334,5.09138461 0.773380847,5.07692308 0.817893667,5.07692308 L2.35635521,5.07692308 C2.40127828,5.07692308 2.43809879,5.09138461 2.46681675,5.12030769 C2.49553469,5.14923077 2.50999623,5.18605128 2.51020136,5.23076923 L2.51020136,5.23076923 Z M8.58712447,5.84615385 C8.58712447,6.23076923 8.45091933,6.55610257 8.17850907,6.82215387 L7.4717398,7.524 C7.20568854,7.79005127 6.88035521,7.92307693 6.49573982,7.92307693 C6.10784239,7.92307693 5.78097059,7.7868718 5.51512444,7.51446153 L3.90927828,5.904 C3.84199623,5.83671795 3.77471418,5.74697436 3.70743213,5.63476923 L4.85635521,5.54830769 L6.16897059,6.86553847 C6.25553469,6.95210253 6.36445777,6.99620513 6.49573982,6.99784613 C6.62702187,6.9994872 6.73594495,6.95702567 6.82250905,6.87046153 L7.52927827,6.16861539 C7.61912447,6.07876923 7.66404753,5.97138461 7.66404753,5.84646154 C7.66404753,5.71825641 7.61912447,5.60933333 7.52927827,5.51969231 L6.21204751,4.19753846 L6.29850905,3.04861539 C6.41071418,3.11589743 6.50045777,3.18317949 6.56773982,3.25046154 L8.18312447,4.86584615 C8.4524578,5.14153846 8.58712447,5.46841025 8.58712447,5.84646154 L8.58712447,5.84615385 Z M5.6206629,2.36553846 L4.47173982,2.452 L3.15912444,1.13476923 C3.06927828,1.04492308 2.96035521,1 2.83235521,1 C2.70743213,1 2.59850905,1.04328205 2.50558597,1.12984615 L1.79881675,1.83169231 C1.70897059,1.92153846 1.66404751,2.02892308 1.66404751,2.15384615 C1.66404751,2.28205128 1.70897059,2.39097436 1.79881675,2.48061539 L3.11604751,3.79784615 L3.02958597,4.95169231 C2.91738085,4.88441025 2.82763726,4.81712821 2.76035521,4.74984615 L1.14497059,3.13446154 C0.875637257,2.85876923 0.740970591,2.53189743 0.740970591,2.15384615 C0.740970591,1.76923077 0.877175719,1.44389743 1.14958598,1.17784615 L1.85635521,0.476 C2.12240649,0.209948718 2.44773982,0.0769230767 2.83235521,0.0769230767 C3.22025264,0.0769230767 3.54712444,0.213128205 3.81297059,0.485538461 L5.41881675,2.096 C5.48609879,2.16328205 5.55338085,2.25302564 5.6206629,2.36523077 L5.6206629,2.36553846 Z M8.66404753,2.76923077 C8.66404753,2.81415385 8.649586,2.85097436 8.62066287,2.87969231 C8.5917398,2.90841025 8.55491933,2.92287179 8.51020133,2.92307692 L6.97173982,2.92307692 C6.92681675,2.92307692 6.88999623,2.90861539 6.86127828,2.87969231 C6.83256033,2.85076923 6.81809879,2.81394872 6.81789367,2.76923077 C6.81768854,2.72451282 6.83215008,2.68769231 6.86127828,2.65876923 C6.89040649,2.62984615 6.927227,2.61538461 6.97173982,2.61538461 L8.51020133,2.61538461 C8.55512447,2.61538461 8.59194493,2.62984615 8.62066287,2.65876923 C8.64938087,2.68769231 8.6638424,2.72451282 8.66404753,2.76923077 L8.66404753,2.76923077 Z M6.0486629,0.153846154 L6.0486629,1.69230769 C6.0486629,1.73723077 6.03420136,1.77405128 6.00527828,1.80276923 C5.97635521,1.83148718 5.93953469,1.84594872 5.89481675,1.84615385 C5.85009879,1.84635897 5.81327828,1.83189743 5.78435521,1.80276923 C5.75543213,1.77364103 5.74097059,1.73682051 5.74097059,1.69230769 L5.74097059,0.153846154 C5.74097059,0.108923077 5.75543213,0.072102564 5.78435521,0.0433846154 C5.81327828,0.0146666667 5.85009879,0.000205128205 5.89481675,-1.37326784e-15 C5.93953469,-0.000205128205 5.97635521,0.0142564103 6.00527828,0.0433846154 C6.03420136,0.0725128207 6.0486629,0.109333333 6.0486629,0.153846154 L6.0486629,0.153846154 Z M8.00527827,0.879692307 L6.77450905,2.11046154 C6.739227,2.13938461 6.70240649,2.15384615 6.66404751,2.15384615 C6.62568854,2.15384615 6.58886803,2.13938461 6.55358597,2.11046154 C6.5246629,2.07846154 6.51020136,2.04164103 6.51020136,2 C6.51020136,1.95835897 6.5246629,1.92153846 6.55358597,1.88953846 L7.7843552,0.658769231 C7.8163552,0.629846154 7.85317573,0.615384615 7.89481673,0.615384615 C7.9364578,0.615384615 7.97327827,0.629846154 8.00527827,0.658769231 C8.03420133,0.690769233 8.04866287,0.727589747 8.04866287,0.769230767 C8.04866287,0.810871793 8.03420133,0.847692307 8.00527827,0.879692307 L8.00527827,0.879692307 Z" id="unlink"></path>
                </g>
            </g>
        </g>
    </g>
</svg>