<?xml version="1.0" encoding="UTF-8" standalone="no"?>
<svg width="12px" height="12px" viewBox="0 0 12 12" version="1.1" xmlns="http://www.w3.org/2000/svg" xmlns:xlink="http://www.w3.org/1999/xlink">
    <!-- Generator: Sketch 3.8.3 (29802) - http://www.bohemiancoding.com/sketch -->
    <title>bold</title>
    <desc>Created with Sketch.</desc>
    <defs></defs>
    <g id="Page-1" stroke="none" stroke-width="1" fill="none" fill-rule="evenodd">
        <path d="M4.83207127,10.883 C5.2174046,11.0496667 5.58207127,11.133 5.92607127,11.133 C7.8844046,11.133 8.86357127,10.2606667 8.86357127,8.516 C8.86357127,7.92233333 8.75673794,7.45366667 8.54307127,7.11 C8.4024046,6.88066667 8.24223794,6.688 8.06257127,6.532 C7.8829046,6.376 7.70707127,6.25483333 7.53507127,6.1685 C7.36307127,6.08216667 7.1534046,6.017 6.90607127,5.973 C6.65873794,5.929 6.4399046,5.90166667 6.24957127,5.891 C6.05923794,5.88033333 5.81307127,5.87516667 5.51107127,5.8755 C5.13073794,5.8755 4.86773794,5.9015 4.72207127,5.9535 C4.72207127,6.2295 4.72073794,6.6435 4.71807127,7.1955 C4.7154046,7.7475 4.71407127,8.159 4.71407127,8.43 C4.71407127,8.47166667 4.7114046,8.6475 4.70607127,8.9575 C4.70073794,9.2675 4.6994046,9.51883333 4.70207127,9.7115 C4.70473794,9.90416667 4.7164046,10.1216667 4.73707127,10.364 C4.75773794,10.6063333 4.7889046,10.7795 4.83057127,10.8835 L4.83207127,10.883 Z M4.72257127,5.0545 C4.94123794,5.09083333 5.22507127,5.109 5.57407127,5.109 C6.00107127,5.109 6.3734046,5.07516667 6.69107127,5.0075 C7.00873794,4.93983333 7.29523794,4.824 7.55057127,4.66 C7.8059046,4.496 7.9999046,4.263 8.13257127,3.961 C8.26523794,3.659 8.33157127,3.28916667 8.33157127,2.8515 C8.33157127,2.48683333 8.25607127,2.16783333 8.10507127,1.8945 C7.95407127,1.62116667 7.7484046,1.40766667 7.48807127,1.254 C7.22773794,1.10033333 6.94657127,0.987 6.64457127,0.914 C6.34257127,0.841 6.01973794,0.8045 5.67607127,0.8045 C5.41573794,0.8045 5.07723794,0.838333333 4.66057127,0.906 C4.66057127,1.16633333 4.67107127,1.5595 4.69207127,2.0855 C4.71307127,2.6115 4.72357127,3.00733333 4.72357127,3.273 C4.72357127,3.41366667 4.72223794,3.622 4.71957127,3.898 C4.7169046,4.174 4.71557127,4.37966667 4.71557127,4.515 C4.71557127,4.75466667 4.71823794,4.93433333 4.72357127,5.054 L4.72257127,5.0545 Z M0.496071271,12 L0.511571271,11.2655 C0.589571271,11.2445 0.810904604,11.2028333 1.17557127,11.1405 C1.54023794,11.0781667 1.81623794,11.0078333 2.00357127,10.9295 C2.0399046,10.8671667 2.0724046,10.7968333 2.10107127,10.7185 C2.12973794,10.6401667 2.1519046,10.553 2.16757127,10.457 C2.18323794,10.361 2.19757127,10.2763333 2.21057127,10.203 C2.22357127,10.1296667 2.2314046,10.032 2.23407127,9.91 C2.23673794,9.788 2.23807127,9.6995 2.23807127,9.6445 L2.23807127,9.133 C2.23807127,4.01833333 2.18073794,1.349 2.06607127,1.125 C2.04507127,1.08333333 1.98773794,1.0455 1.89407127,1.0115 C1.8004046,0.9775 1.68457127,0.948833333 1.54657127,0.9255 C1.40857127,0.902166667 1.27973794,0.884 1.16007127,0.871 C1.0404046,0.858 0.914071271,0.846333333 0.781071271,0.836 C0.648071271,0.825666667 0.568571271,0.817833333 0.542571271,0.8125 L0.511071271,0.164 C1.0214046,0.153666667 1.9069046,0.123666667 3.16757127,0.074 C4.42823794,0.0243333333 5.39957127,-0.000333333333 6.08157127,1.30451163e-15 C6.20123794,1.30451163e-15 6.37957127,0.00133333333 6.61657127,0.004 C6.85357127,0.00666666667 7.0294046,0.008 7.14407127,0.008 C7.50873794,0.008 7.86423794,0.0418333333 8.21057127,0.1095 C8.5569046,0.177166667 8.89157127,0.2865 9.21457127,0.4375 C9.53757127,0.5885 9.81873794,0.773333333 10.0580713,0.992 C10.2974046,1.21066667 10.4900713,1.48283333 10.6360713,1.8085 C10.7820713,2.13416667 10.8550713,2.49216667 10.8550713,2.8825 C10.8550713,3.15316667 10.8120713,3.40183333 10.7260713,3.6285 C10.6400713,3.85516667 10.5385713,4.04266667 10.4215713,4.191 C10.3045713,4.33933333 10.1365713,4.489 9.91757127,4.64 C9.69857127,4.791 9.5084046,4.90816667 9.34707127,4.9915 C9.18573794,5.07483333 8.9669046,5.179 8.69057127,5.304 C9.49257127,5.48633333 10.1605713,5.83533333 10.6945713,6.351 C11.2285713,6.86666667 11.4955713,7.5125 11.4955713,8.2885 C11.4955713,8.8095 11.4044046,9.277 11.2220713,9.691 C11.0397379,10.105 10.7962379,10.4448333 10.4915713,10.7105 C10.1869046,10.9761667 9.82757127,11.1988333 9.41357127,11.3785 C8.99957127,11.5581667 8.57373794,11.6845 8.13607127,11.7575 C7.6984046,11.8305 7.24007127,11.867 6.76107127,11.867 C6.53173794,11.867 6.1879046,11.8591667 5.72957127,11.8435 C5.27123794,11.8278333 4.9274046,11.82 4.69807127,11.82 C4.14607127,11.82 3.34657127,11.8486667 2.29957127,11.906 C1.25257127,11.9633333 0.651071271,11.9945 0.495071271,11.9995 L0.496071271,12 Z" id="bold" fill="#000000"></path>
    </g>
</svg>