<?xml version="1.0" encoding="UTF-8" standalone="no"?>
<svg width="15px" height="10px" viewBox="0 0 15 10" version="1.1" xmlns="http://www.w3.org/2000/svg" xmlns:xlink="http://www.w3.org/1999/xlink">
    <!-- Generator: Sketch 3.8.3 (29802) - http://www.bohemiancoding.com/sketch -->
    <title>H1</title>
    <desc>Created with Sketch.</desc>
    <defs></defs>
    <g id="Page-1" stroke="none" stroke-width="1" fill="none" fill-rule="evenodd">
        <path d="M0,0 L0,10 L2.19887955,10 L2.19887955,5.68627451 L6.2464986,5.68627451 L6.2464986,10 L8.44537815,10 L8.44537815,0 L6.2464986,0 L6.2464986,3.83753501 L2.19887955,3.83753501 L2.19887955,0 L0,0 Z M14.0686275,10 L14.0686275,0.196078431 L12.4859944,0.196078431 C12.4299717,0.569563025 12.3132595,0.882351681 12.1358543,1.13445378 C11.9584492,1.38655588 11.7413645,1.58963508 11.4845938,1.74369748 C11.2278232,1.89775987 10.938377,2.00513508 10.6162465,2.06582633 C10.294116,2.12651758 9.96031919,2.15219426 9.61484594,2.14285714 L9.61484594,3.64145658 L12.0798319,3.64145658 L12.0798319,10 L14.0686275,10 Z" id="H1" fill="#000000"></path>
    </g>
</svg>