<?xml version="1.0" encoding="UTF-8" standalone="no"?>
<svg width="9px" height="12px" viewBox="0 0 9 12" version="1.1" xmlns="http://www.w3.org/2000/svg" xmlns:xlink="http://www.w3.org/1999/xlink">
    <!-- Generator: Sketch 3.8.3 (29802) - http://www.bohemiancoding.com/sketch -->
    <title>italic</title>
    <desc>Created with Sketch.</desc>
    <defs></defs>
    <g id="Page-1" stroke="none" stroke-width="1" fill="none" fill-rule="evenodd">
        <path d="M0.496071271,11.9845 L0.629071271,11.3205 C0.660404604,11.3101667 0.872571271,11.2541667 1.26557127,11.1525 C1.65857127,11.0508333 1.9489046,10.9531667 2.13657127,10.8595 C2.28257127,10.6771667 2.3894046,10.4141667 2.45707127,10.0705 C2.4624046,10.0341667 2.6239046,9.2815 2.94157127,7.8125 C3.25923794,6.3435 3.55607127,4.92816667 3.83207127,3.5665 C4.10807127,2.20483333 4.2434046,1.43266667 4.23807127,1.25 L4.23807127,1.0545 C4.11307127,0.986833333 3.97107127,0.938666667 3.81207127,0.91 C3.65307127,0.881333333 3.47207127,0.8605 3.26907127,0.8475 C3.06607127,0.8345 2.91507127,0.820166667 2.81607127,0.8045 L2.96457127,3.55271368e-15 C3.13657127,0.0103333333 3.44907127,0.0273333333 3.90207127,0.051 C4.35507127,0.0746666667 4.7444046,0.0928333333 5.07007127,0.1055 C5.39573794,0.118166667 5.70957127,0.124666667 6.01157127,0.125 C6.26157127,0.125 6.51807127,0.1185 6.78107127,0.1055 C7.04407127,0.0925 7.35923794,0.0743333333 7.72657127,0.051 C8.0939046,0.0276666667 8.3504046,0.0106666667 8.49607127,3.55271368e-15 C8.47007127,0.203 8.42057127,0.434833333 8.34757127,0.6955 C8.19123794,0.7475 7.9269046,0.821666667 7.55457127,0.918 C7.18223794,1.01433333 6.89973794,1.1015 6.70707127,1.1795 C6.6654046,1.2785 6.6289046,1.38916667 6.59757127,1.5115 C6.56623794,1.63383333 6.54273794,1.738 6.52707127,1.824 C6.5114046,1.91 6.4919046,2.0285 6.46857127,2.1795 C6.44523794,2.3305 6.42823794,2.43983333 6.41757127,2.5075 C6.2769046,3.27816667 6.04907127,4.37066667 5.73407127,5.785 C5.41907127,7.19933333 5.21723794,8.12516667 5.12857127,8.5625 C5.11823794,8.6095 5.0844046,8.7605 5.02707127,9.0155 C4.96973794,9.2705 4.91757127,9.50483333 4.87057127,9.7185 C4.82357127,9.93216667 4.7819046,10.1496667 4.74557127,10.371 C4.70923794,10.5923333 4.69357127,10.742 4.69857127,10.82 L4.70657127,10.9605 C4.79523794,10.9815 5.27707127,11.0621667 6.15207127,11.2025 C6.1364046,11.4318333 6.09473794,11.6896667 6.02707127,11.976 C5.96973794,11.976 5.88507127,11.9798333 5.77307127,11.9875 C5.66107127,11.9951667 5.5764046,11.999 5.51907127,11.999 C5.36807127,11.999 5.14157127,11.973 4.83957127,11.921 C4.53757127,11.869 4.31357127,11.843 4.16757127,11.843 C3.4489046,11.8326667 2.9124046,11.8275 2.55807127,11.8275 C2.2924046,11.8275 1.92007127,11.851 1.44107127,11.898 C0.962071271,11.945 0.646904604,11.9736667 0.495571271,11.984 L0.496071271,11.9845 Z" id="italic" fill="#000000"></path>
    </g>
</svg>