<?xml version="1.0" encoding="UTF-8" standalone="no"?>
<svg width="12px" height="12px" viewBox="0 0 12 12" version="1.1" xmlns="http://www.w3.org/2000/svg" xmlns:xlink="http://www.w3.org/1999/xlink">
    <!-- Generator: Sketch 3.8.3 (29802) - http://www.bohemiancoding.com/sketch -->
    <title>link</title>
    <desc>Created with Sketch.</desc>
    <defs></defs>
    <g id="Page-1" stroke="none" stroke-width="1" fill="none" fill-rule="evenodd">
        <path d="M10.4960713,8.76923077 C10.4960713,8.57692308 10.4286867,8.41353846 10.2939174,8.27907692 L8.79391742,6.77907692 C8.65914819,6.64430769 8.49576358,6.57692308 8.30376358,6.57692308 C8.10191742,6.57692308 7.9288405,6.65384615 7.78453281,6.80769231 C7.79899435,6.82215385 7.84468666,6.86661538 7.92160973,6.94107692 C7.99853281,7.01553846 8.05022512,7.06723077 8.07668666,7.09615385 C8.10314819,7.12507692 8.13914819,7.17076923 8.18468666,7.23323077 C8.23022512,7.29569231 8.26145589,7.35692308 8.27837896,7.41692308 C8.29530204,7.47692308 8.30376358,7.54307692 8.30376358,7.61538462 C8.30376358,7.80769231 8.23637896,7.97107692 8.10160973,8.10553846 C7.9668405,8.24 7.80345589,8.30738462 7.61145589,8.30769231 C7.53945589,8.30769231 7.47330204,8.29923077 7.41299435,8.28230769 C7.35268666,8.26538462 7.29145589,8.23415385 7.22930204,8.18861538 C7.16714819,8.14307692 7.12145589,8.10707692 7.09222512,8.08061538 C7.06299435,8.05415385 7.01130204,8.00246154 6.93714819,7.92553846 C6.86299435,7.84861538 6.81853281,7.80292308 6.80376358,7.78846154 C6.64499435,7.93738462 6.56560973,8.11292308 6.56560973,8.31507692 C6.56560973,8.50738462 6.63299435,8.67076923 6.76776358,8.80523077 L8.25345589,10.2978462 C8.38330204,10.4276923 8.54668666,10.4926154 8.74360973,10.4926154 C8.93591742,10.4926154 9.09930204,10.4301538 9.23376358,10.3052308 L10.2939174,9.25246154 C10.4286867,9.11769231 10.4960713,8.95661538 10.4960713,8.76923077 L10.4960713,8.76923077 Z M5.42653281,3.68492308 C5.42653281,3.49261538 5.35914819,3.32923077 5.22437896,3.19476923 L3.73868666,1.70215385 C3.60391742,1.56738462 3.44053281,1.5 3.24853281,1.5 C3.06114819,1.5 2.89776358,1.56492308 2.75837896,1.69476923 L1.69822512,2.74753846 C1.56345589,2.88230769 1.49607127,3.04338462 1.49607127,3.23076923 C1.49607127,3.42307692 1.56345589,3.58646154 1.69822512,3.72092308 L3.19822512,5.22092308 C3.32807127,5.35076923 3.49145589,5.41569231 3.68837896,5.41569231 C3.89022512,5.41569231 4.06330204,5.34123077 4.20760973,5.19230769 C4.19314819,5.17784615 4.14745589,5.13338462 4.07053281,5.05892308 C3.99360973,4.98446154 3.94191742,4.93276923 3.91545589,4.90384615 C3.88899435,4.87492308 3.85299435,4.82923077 3.80745589,4.76676923 C3.76191742,4.70430769 3.73068666,4.64307692 3.71376358,4.58307692 C3.6968405,4.52307692 3.68837896,4.45692308 3.68837896,4.38461538 C3.68837896,4.19230769 3.75576358,4.02892308 3.89053281,3.89446154 C4.02530204,3.76 4.18868666,3.69261538 4.38068666,3.69230769 C4.45268666,3.69230769 4.5188405,3.70076923 4.57914819,3.71769231 C4.63945589,3.73461538 4.70068666,3.76584615 4.7628405,3.81138462 C4.82499435,3.85692308 4.87068666,3.89292308 4.89991742,3.91938462 C4.92914819,3.94584615 4.9808405,3.99753846 5.05499435,4.07446154 C5.12914819,4.15138462 5.17360973,4.19707692 5.18837896,4.21153846 C5.34714819,4.06261538 5.42653281,3.88707692 5.42653281,3.68492308 L5.42653281,3.68492308 Z M11.8806867,8.76923077 C11.8806867,9.34615385 11.676379,9.83415385 11.2677636,10.2332308 L10.2076097,11.286 C9.80853281,11.6850769 9.32053281,11.8846154 8.74360973,11.8846154 C8.16176358,11.8846154 7.67145589,11.6803077 7.27268666,11.2716923 L5.78699435,9.77907692 C5.38791742,9.38 5.18837896,8.892 5.18837896,8.31507692 C5.18837896,7.72369231 5.39991742,7.22123077 5.82299435,6.80769231 L5.18837896,6.17307692 C4.7748405,6.59615385 4.2748405,6.80769231 3.68837896,6.80769231 C3.11145589,6.80769231 2.62114819,6.60569231 2.21745589,6.20169231 L0.717455886,4.70169231 C0.313455886,4.29769231 0.111455886,3.80738462 0.111455886,3.23076923 C0.111455886,2.65415385 0.315763578,2.16615385 0.724378963,1.76676923 L1.78453281,0.714 C2.18360973,0.314923077 2.67160973,0.115384615 3.24853281,0.115384615 C3.83037896,0.115384615 4.32068666,0.319692308 4.71945589,0.728307692 L6.20514819,2.22092308 C6.60422512,2.62 6.80376358,3.108 6.80376358,3.68492308 C6.80376358,4.27630769 6.59222512,4.77876923 6.16914819,5.19230769 L6.80376358,5.82692308 C7.21730204,5.40384615 7.71730204,5.19230769 8.30376358,5.19230769 C8.88068666,5.19230769 9.37099435,5.39430769 9.77468666,5.79830769 L11.2746867,7.29830769 C11.6786867,7.70230769 11.8806867,8.19261538 11.8806867,8.76923077 L11.8806867,8.76923077 Z" id="link" fill="#000000"></path>
    </g>
</svg>