<?xml version="1.0" encoding="UTF-8" standalone="no"?>
<svg width="12px" height="10px" viewBox="0 0 12 10" version="1.1" xmlns="http://www.w3.org/2000/svg" xmlns:xlink="http://www.w3.org/1999/xlink">
    <!-- Generator: Sketch 3.8.3 (29802) - http://www.bohemiancoding.com/sketch -->
    <title>ul</title>
    <desc>Created with Sketch.</desc>
    <defs></defs>
    <g id="Page-1" stroke="none" stroke-width="1" fill="none" fill-rule="evenodd">
        <path d="M2.57142857,8.14285714 C2.57142857,8.5 2.44642857,8.80357143 2.19642857,9.05357143 C1.94642857,9.30357143 1.64285714,9.42857143 1.28571429,9.42857143 C0.928571429,9.42857143 0.625,9.30357143 0.375,9.05357143 C0.125,8.80357143 0,8.5 0,8.14285714 C0,7.78571429 0.125,7.48214286 0.375,7.23214286 C0.625,6.98214286 0.928571429,6.85714286 1.28571429,6.85714286 C1.64285714,6.85714286 1.94642857,6.98214286 2.19642857,7.23214286 C2.44642857,7.48214286 2.57142857,7.78571429 2.57142857,8.14285714 L2.57142857,8.14285714 Z M2.57142857,4.71428571 C2.57142857,5.07142857 2.44642857,5.375 2.19642857,5.625 C1.94642857,5.875 1.64285714,6 1.28571429,6 C0.928571429,6 0.625,5.875 0.375,5.625 C0.125,5.375 0,5.07142857 0,4.71428571 C0,4.35714286 0.125,4.05357143 0.375,3.80357143 C0.625,3.55357143 0.928571429,3.42857143 1.28571429,3.42857143 C1.64285714,3.42857143 1.94642857,3.55357143 2.19642857,3.80357143 C2.44642857,4.05357143 2.57142857,4.35714286 2.57142857,4.71428571 L2.57142857,4.71428571 Z M12,7.5 L12,8.78571429 C12,8.84371429 11.9788571,8.894 11.9365714,8.93657143 C11.8942857,8.97914286 11.844,9.00028571 11.7857143,9 L3.64285714,9 C3.58485714,9 3.53457143,8.97885714 3.492,8.93657143 C3.44942857,8.89428571 3.42828571,8.844 3.42857143,8.78571429 L3.42857143,7.5 C3.42857143,7.442 3.44971429,7.39171429 3.492,7.34914286 C3.53428571,7.30657143 3.58457143,7.28542857 3.64285714,7.28571429 L11.7857143,7.28571429 C11.8437143,7.28571429 11.894,7.30685714 11.9365714,7.34914286 C11.9791429,7.39142857 12.0002857,7.44171429 12,7.5 L12,7.5 Z M2.57142857,1.28571429 C2.57142857,1.64285714 2.44642857,1.94642857 2.19642857,2.19642857 C1.94642857,2.44642857 1.64285714,2.57142857 1.28571429,2.57142857 C0.928571429,2.57142857 0.625,2.44642857 0.375,2.19642857 C0.125,1.94642857 0,1.64285714 0,1.28571429 C0,0.928571429 0.125,0.625 0.375,0.375 C0.625,0.125 0.928571429,0 1.28571429,0 C1.64285714,0 1.94642857,0.125 2.19642857,0.375 C2.44642857,0.625 2.57142857,0.928571429 2.57142857,1.28571429 L2.57142857,1.28571429 Z M12,4.07142857 L12,5.35714286 C12,5.41514286 11.9788571,5.46542857 11.9365714,5.508 C11.8942857,5.55057143 11.844,5.57171429 11.7857143,5.57142857 L3.64285714,5.57142857 C3.58485714,5.57142857 3.53457143,5.55028571 3.492,5.508 C3.44942857,5.46571429 3.42828571,5.41542857 3.42857143,5.35714286 L3.42857143,4.07142857 C3.42857143,4.01342857 3.44971429,3.96314286 3.492,3.92057143 C3.53428571,3.878 3.58457143,3.85685714 3.64285714,3.85714286 L11.7857143,3.85714286 C11.8437143,3.85714286 11.894,3.87828571 11.9365714,3.92057143 C11.9791429,3.96285714 12.0002857,4.01314286 12,4.07142857 L12,4.07142857 Z M12,0.642857143 L12,1.92857143 C12,1.98657143 11.9788571,2.03685714 11.9365714,2.07942857 C11.8942857,2.122 11.844,2.14314286 11.7857143,2.14285714 L3.64285714,2.14285714 C3.58485714,2.14285714 3.53457143,2.12171429 3.492,2.07942857 C3.44942857,2.03714286 3.42828571,1.98685714 3.42857143,1.92857143 L3.42857143,0.642857143 C3.42857143,0.584857143 3.44971429,0.534571429 3.492,0.492 C3.53428571,0.449428571 3.58457143,0.428285714 3.64285714,0.428571429 L11.7857143,0.428571429 C11.8437143,0.428571429 11.894,0.449714286 11.9365714,0.492 C11.9791429,0.534285714 12.0002857,0.584571429 12,0.642857143 L12,0.642857143 Z" id="ul" fill="#000000"></path>
    </g>
</svg>