<?xml version="1.0" encoding="UTF-8" standalone="no"?>
<svg width="12px" height="12px" viewBox="0 0 12 12" version="1.1" xmlns="http://www.w3.org/2000/svg" xmlns:xlink="http://www.w3.org/1999/xlink">
    <!-- Generator: Sketch 3.8.3 (29802) - http://www.bohemiancoding.com/sketch -->
    <title>unlink</title>
    <desc>Created with Sketch.</desc>
    <defs></defs>
    <g id="Page-1" stroke="none" stroke-width="1" fill="none" fill-rule="evenodd">
        <path d="M3.16176358,9.16569231 L1.31560973,11.0118462 C1.26760973,11.0552308 1.21237896,11.0769231 1.14991742,11.0769231 C1.09237896,11.0769231 1.03714819,11.0552308 0.984225117,11.0118462 C0.940840501,10.9638462 0.919148194,10.9086154 0.919148194,10.8461538 C0.919148194,10.7836923 0.940840501,10.7284615 0.984225117,10.6804615 L2.83037896,8.83430769 C2.87837896,8.79092308 2.93360973,8.76923077 2.99607127,8.76923077 C3.05853281,8.76923077 3.11376358,8.79092308 3.16176358,8.83430769 C3.20514819,8.88230769 3.2268405,8.93753846 3.2268405,9 C3.2268405,9.06246154 3.20514819,9.11769231 3.16176358,9.16569231 L3.16176358,9.16569231 Z M4.38068666,9.46153846 L4.38068666,11.7692308 C4.38068666,11.8366154 4.35899435,11.8918462 4.31560973,11.9349231 C4.27222512,11.978 4.21699435,11.9996923 4.14991742,12 C4.0828405,12.0003077 4.02760973,11.9786154 3.98422512,11.9349231 C3.9408405,11.8912308 3.91914819,11.836 3.91914819,11.7692308 L3.91914819,9.46153846 C3.91914819,9.39415385 3.9408405,9.33892308 3.98422512,9.29584615 C4.02760973,9.25276923 4.0828405,9.23107692 4.14991742,9.23076923 C4.21699435,9.23046154 4.27222512,9.25215385 4.31560973,9.29584615 C4.35899435,9.33953846 4.38068666,9.39476923 4.38068666,9.46153846 L4.38068666,9.46153846 Z M2.76530204,7.84615385 C2.76530204,7.91353846 2.74360973,7.96876923 2.70022512,8.01184615 C2.6568405,8.05492308 2.60160973,8.07661538 2.53453281,8.07692308 L0.226840501,8.07692308 C0.159455886,8.07692308 0.104225117,8.05523077 0.0611481936,8.01184615 C0.0180712705,7.96846154 -0.00362103716,7.91323077 -0.00392872947,7.84615385 C-0.00423642177,7.77907692 0.0174558859,7.72384615 0.0611481936,7.68046154 C0.104840501,7.63707692 0.160071271,7.61538462 0.226840501,7.61538462 L2.53453281,7.61538462 C2.60191742,7.61538462 2.65714819,7.63707692 2.70022512,7.68046154 C2.74330204,7.72384615 2.76499435,7.77907692 2.76530204,7.84615385 L2.76530204,7.84615385 Z M11.8806867,8.76923077 C11.8806867,9.34615385 11.676379,9.83415385 11.2677636,10.2332308 L10.2076097,11.286 C9.80853281,11.6850769 9.32053281,11.8846154 8.74360973,11.8846154 C8.16176358,11.8846154 7.67145589,11.6803077 7.27268666,11.2716923 L4.86391742,8.856 C4.76299435,8.75507692 4.66207127,8.62046154 4.56114819,8.45215385 L6.28453281,8.32246154 L8.25345589,10.2983077 C8.38330204,10.4281538 8.54668666,10.4943077 8.74360973,10.4967692 C8.94053281,10.4992308 9.10391742,10.4355385 9.23376358,10.3056923 L10.2939174,9.25292308 C10.4286867,9.11815385 10.4960713,8.95707692 10.4960713,8.76969231 C10.4960713,8.57738462 10.4286867,8.414 10.2939174,8.27953846 L8.31807127,6.29630769 L8.44776358,4.57292308 C8.61607127,4.67384615 8.75068666,4.77476923 8.85160973,4.87569231 L11.2746867,7.29876923 C11.6786867,7.71230769 11.8806867,8.20261538 11.8806867,8.76969231 L11.8806867,8.76923077 Z M7.43099435,3.54830769 L5.70760973,3.678 L3.73868666,1.70215385 C3.60391742,1.56738462 3.44053281,1.5 3.24853281,1.5 C3.06114819,1.5 2.89776358,1.56492308 2.75837896,1.69476923 L1.69822512,2.74753846 C1.56345589,2.88230769 1.49607127,3.04338462 1.49607127,3.23076923 C1.49607127,3.42307692 1.56345589,3.58646154 1.69822512,3.72092308 L3.67407127,5.69676923 L3.54437896,7.42753846 C3.37607127,7.32661538 3.24145589,7.22569231 3.14053281,7.12476923 L0.717455886,4.70169231 C0.313455886,4.28815385 0.111455886,3.79784615 0.111455886,3.23076923 C0.111455886,2.65384615 0.315763578,2.16584615 0.724378963,1.76676923 L1.78453281,0.714 C2.18360973,0.314923077 2.67160973,0.115384615 3.24853281,0.115384615 C3.83037896,0.115384615 4.32068666,0.319692308 4.71945589,0.728307692 L7.12822512,3.144 C7.22914819,3.24492308 7.33007127,3.37953846 7.43099435,3.54784615 L7.43099435,3.54830769 Z M11.9960713,4.15384615 C11.9960713,4.22123077 11.974379,4.27646154 11.9309943,4.31953846 C11.8876097,4.36261538 11.832379,4.38430769 11.765302,4.38461538 L9.45760973,4.38461538 C9.39022512,4.38461538 9.33499435,4.36292308 9.29191742,4.31953846 C9.2488405,4.27615385 9.22714819,4.22092308 9.2268405,4.15384615 C9.22653281,4.08676923 9.24822512,4.03153846 9.29191742,3.98815385 C9.33560973,3.94476923 9.3908405,3.92307692 9.45760973,3.92307692 L11.765302,3.92307692 C11.8326867,3.92307692 11.8879174,3.94476923 11.9309943,3.98815385 C11.9740713,4.03153846 11.9957636,4.08676923 11.9960713,4.15384615 L11.9960713,4.15384615 Z M8.07299435,0.230769231 L8.07299435,2.53846154 C8.07299435,2.60584615 8.05130204,2.66107692 8.00791742,2.70415385 C7.96453281,2.74723077 7.90930204,2.76892308 7.84222512,2.76923077 C7.77514819,2.76953846 7.71991742,2.74784615 7.67653281,2.70415385 C7.63314819,2.66046154 7.61145589,2.60523077 7.61145589,2.53846154 L7.61145589,0.230769231 C7.61145589,0.163384615 7.63314819,0.108153846 7.67653281,0.0650769231 C7.71991742,0.022 7.77514819,0.000307692308 7.84222512,-8.29706465e-16 C7.90930204,-0.000307692308 7.96453281,0.0213846154 8.00791742,0.0650769231 C8.05130204,0.108769231 8.07299435,0.164 8.07299435,0.230769231 L8.07299435,0.230769231 Z M11.0079174,1.31953846 L9.16176358,3.16569231 C9.1088405,3.20907692 9.05360973,3.23076923 8.99607127,3.23076923 C8.93853281,3.23076923 8.88330204,3.20907692 8.83037896,3.16569231 C8.78699435,3.11769231 8.76530204,3.06246154 8.76530204,3 C8.76530204,2.93753846 8.78699435,2.88230769 8.83037896,2.83430769 L10.6765328,0.988153846 C10.7245328,0.944769231 10.7797636,0.923076923 10.8422251,0.923076923 C10.9046867,0.923076923 10.9599174,0.944769231 11.0079174,0.988153846 C11.051302,1.03615385 11.0729943,1.09138462 11.0729943,1.15384615 C11.0729943,1.21630769 11.051302,1.27153846 11.0079174,1.31953846 L11.0079174,1.31953846 Z" id="unlink" fill="#000000"></path>
    </g>
</svg>